<?xml version="1.0" encoding="UTF-8"?>
<svg width="1920px" height="1080px" viewBox="0 0 1920 1080" version="1.1" xmlns="http://www.w3.org/2000/svg" xmlns:xlink="http://www.w3.org/1999/xlink">
    <!-- Generator: Sketch 49.2 (51160) - http://www.bohemiancoding.com/sketch -->
    <title>131-Results-Background</title>
    <desc>Created with Sketch.</desc>
    <defs></defs>
    <g id="Page-1" stroke="none" stroke-width="1" fill="none" fill-rule="evenodd">
        <g id="Background">
            <polygon id="Rectangle" fill="#000000" points="0 0 1333.62202 0 790.326087 1080 0 1080"></polygon>
            <polygon id="Path-2" fill="#3EFC16" points="1333.62 -7.10542736e-15 1920 -7.10542736e-15 1920 1080 790.634813 1080"></polygon>
        </g>
        <g transform="translate(181.000000, 407.000000)" fill="#3EFC16" id="Fill-4">
            <path d="M249.07952,119.075846 C240.858573,132.564176 231.090402,143.082132 222.493151,154.46652 C218.026501,160.381011 212.544703,165.691625 208.995186,172.094468 C204.612548,179.993875 198.558417,181.474686 190.290214,181.392418 C155.005079,181.040595 119.711193,181.479937 84.4278078,181.0686 C75.8778135,180.97058 74.2588279,184.31028 74.4216016,191.968137 C74.871417,212.941036 74.5126148,233.93494 74.6123793,254.918342 C74.6281316,258.090007 74.108306,259.766859 70.3802634,259.756357 C48.8311273,259.695094 27.2819913,259.829872 5.73110494,259.889385 C1.11568325,259.903387 0.0690309328,257.311094 0.14954265,253.103211 C0.366574235,241.732826 0.210801565,230.355439 0.210801565,218.981553 C0.216052329,149.565492 0.417331621,80.1511812 0.000770998872,10.7386206 C-0.0534868974,1.53519006 2.74692065,-0.0156352572 11.2776621,0.00011804738 C164.680487,0.266173857 318.085062,-0.208175646 471.486137,0.458714246 C506.944547,0.612746557 539.970103,10.3325355 565.467814,37.5980049 C586.281843,59.8539235 589.974881,85.9606498 582.333269,114.162566 C573.188188,147.907894 547.055135,164.060283 516.476434,174.53448 C497.284891,181.108859 477.200719,182.029552 456.980026,181.823009 C421.404348,181.460683 385.81817,181.87727 350.240742,181.597211 C343.250225,181.54295 340.546081,183.097276 340.761362,190.798892 C341.316193,210.613048 340.600339,230.462212 340.960891,250.28512 C341.08691,257.221825 339.585191,260.186947 331.899823,259.990906 C312.372231,259.495552 292.821886,259.654835 273.285542,259.948897 C267.893008,260.031164 266.232016,258.286048 266.288024,253.00344 C266.512057,231.130852 266.405291,209.256513 266.39829,187.382175 C266.39654,184.434557 266.706335,181.795003 268.726129,179.25347 C282.857686,161.485493 296.940235,143.675507 310.781249,125.679982 C314.586303,120.733444 318.638143,118.631253 325.192847,118.675012 C374.184226,119.009332 423.180857,118.787036 472.177487,118.893808 C481.973663,118.916563 491.113493,117.075177 499.350192,111.635035 C507.78992,106.058366 512.291575,98.1589586 511.097902,88.0768437 C509.877974,77.7934366 503.246259,70.5644202 494.064423,66.9954215 C487.478214,64.4346344 480.30392,62.9923318 472.786576,63.0045844 C343.591524,63.1953744 214.392972,63.1306108 85.1961696,63.1306108 C75.5312631,63.1306108 74.2395751,64.60442 74.4356036,74.2244379 C74.6701377,85.8783826 75.1899634,97.5585827 74.6596362,109.184521 C74.3235873,116.583323 76.7511906,118.850049 84.0287497,118.816792 C136.230097,118.585744 188.433194,118.680263 240.634541,118.692516 C242.953628,118.692516 245.272716,118.897309 249.07952,119.075846"></path>
        </g>
    </g>
</svg>