<svg fill="none" height="133" viewBox="0 0 98 133" width="98" xmlns="http://www.w3.org/2000/svg" xmlns:xlink="http://www.w3.org/1999/xlink"><clipPath id="a"><path d="m0 0h97.05v132.93h-97.05z"/></clipPath><g clip-path="url(#a)"><rect fill="#111" height="133" rx="5" width="97"/><path d="m59.4543 69.77c.579-1.544 1.213-3.068 1.837-4.6l-.027.047-.158-.077c.094-.1773.1873-.355.28-.533l.114.051c.055-.136.111-.272.166-.407l.006-.053.01.012.009-.022c.926-2.3047 1.8483-4.6107 2.767-6.918.0572-.1204.0845-.2528.0796-.386s-.0418-.2633-.1076-.3792c-.0659-.1159-.1587-.2142-.2706-.2866-.112-.0724-.2397-.1167-.3724-.1292-.2564-.0374-.5149-.0587-.774-.064-.3-.016-.381-.135-.263-.425.4146-.9645.6796-1.9866.786-3.031.1201-.7592.0521-1.5362-.1979-2.2631-.25-.7268-.6744-1.3812-1.2361-1.9059-.5663-.498-1.23-.8726-1.949-1.1-.27-.09-.316-.205-.178-.448.2387-.4312.4167-.8932.529-1.373.3694-1.5832.1189-3.2477-.7-4.652-1.1784-2.072-2.8412-3.8277-4.846-5.117-.8-.553-1.259-.436-1.731.41-.8572 1.5187-2.0486 2.8226-3.484 3.813-1.8429 1.181-3.8316 2.1172-5.916 2.785-.9387.2951-1.8369.7059-2.674 1.223-.338.233-.534.218-.807-.091-.842-.95-1.702-1.8853-2.58-2.806-.3913-.4327-.8959-.7471-1.4567-.9078-.5607-.1606-1.1553-.161-1.7163-.0012-.5744.1362-1.102.4232-1.5284.8314s-.7361.9228-.8972 1.4906c-.1611.5679-.1678 1.1685-.0193 1.7398.1484.5713.4467 1.0926.8639 1.5102 1.5 1.615 2.984 3.246 4.5 4.85.218.233.237.384.113.578.0006.1297-.0224.2585-.068.38l-.082-.174c-.4606.5235-.8002 1.1419-.9948 1.8115-.1946.6695-.2394 1.3737-.1312 2.0625.109.788.11.788-.713.825-.2013-.0189-.4036.0242-.5798.1233-.1762.0992-.3179.2498-.4062.4317l.109.02c-.062.042-.1.075-.14.1-.0389.2272-.0147.4607.07.675.531 1.5 1.082 2.991 1.62 4.487.754 2.092 1.5057 4.184 2.255 6.276.219.609.425 1.222.659 1.825.1871.5395.5511.9999 1.033 1.3063.4818.3065 1.0531.441 1.621.3817 2.478.004 4.9567.004 7.436 0h7.358c.6119.0563 1.2242-.1022 1.732-.4481.5078-.346.8794-.8579 1.051-1.4479zm3.613-16.3c.0537.0501.1019.1058.144.166-.0297.0457-.0631.0889-.1.129-.0466-.0595-.0887-.1223-.126-.188.025-.038.07-.117.082-.107zm-1.25 8.972c.091-.326.091-.326.367-.154zm-.038-5.476.07-.016c.007.05.017.1.019.149 0 .009-.032.019-.049.029zm.96-.612c-.056.136-.1.239-.153.368-.171-.278-.171-.278.153-.368zm-.312 5.122.16.04c-.01.017-.02.049-.029.049-.0493-.0039-.0984-.0102-.147-.019zm-.083-10.778-.578.495-.122-.11c.0168-.0735.049-.1427.0945-.2029.0454-.0602.1031-.1102.1692-.1465.0661-.0364.1391-.0584.2143-.0645s.1509.0037.222.0289zm-25.652 11.5-.074-.085.219-.174.083.094zm.682-.3-.123-.067.15-.222.11.06c-.045.077-.092.153-.134.23zm.372-14.726.217-.182.112.144-.244.149zm.421 9.147h-.1v-.027h.1zm.115 3.832-.079-.253.155-.03.011.263zm.176 7.147-.023-.145.054-.008.014.147zm18.753-9.082c-.093-.0558-.1804-.1205-.261-.193.119-.09.2-.182.219-.16.0608.0809.1109.1693.149.263-.041.034-.081.103-.107.091zm2.429 2.344-.047-.157.415-.1.039.124zm1.1-5.989-.124-.039.1-.418.156.047zm-1.293-5.855.27.056-.032.138-.265-.09zm-1.772-8.6.143.112-.183.229-.083-.062zm-.551-1.913.021.176-.373.047-.02-.159zm-3.493-1.457.005.059-.152.011-.005-.05zm-.01 2.465.035.118-.343.146-.111-.216zm-.93-1.913.11.085-.149.246-.142-.113c.067-.074.122-.147.183-.219zm-11.789 10.386c.0347.0129.0682.0289.1.048l-.23.027c.092-.055.115-.075.13-.075zm-1.206.005.215.113c-.049.114-.1.229-.146.344l-.117-.034c.015-.136.029-.268.048-.428zm-.923 6.272.043-.027.01.035zm.254-5.153c.0084.0177.0141.0366.017.056 0 .007-.028.013-.043.019-.0091-.0172-.0152-.0358-.018-.055 0-.009.028-.016.044-.022zm.072 12.164-.1-.021c-.0139-.0803-.0115-.1626.007-.242.0508-.0786.1136-.1488.186-.208l.1.071c-.066.131-.13.264-.193.398zm.275.948-.113-.02c.015-.106.031-.213.046-.319l.116.02c-.016.105-.033.211-.046.317zm.708-.161.048-.032.009.049zm.051-1.231-.025-.194.073-.008.009.2zm.285-2.648.064.036-.045.02zm.225 2.054-.164-.131.046-.076.17.065zm4 .672c-.0067-.0173-.0108-.0355-.012-.054 0-.008.022-.013.034-.02.0069.0177.0116.0362.014.055.003.005-.02.011-.033.017zm.056-.731c-.194-.549-.194-.549.07-.854-.021.289-.043.563-.067.852zm1.8 10.973c-.0081-.0163-.0132-.0339-.015-.052 0-.007.026-.012.04-.018.0075.0164.0119.034.013.052.002.005-.023.01-.036.016zm1.01-9.454c-.0211-.0515-.0326-.1064-.034-.162.01-.04.065-.058.1-.085l.079.131zm.463-6.026.043-.025v.045zm2.14 11.432v.02h-.022c-.009.226-.058.432-.471.535.157-.273.192-.492.471-.535v-.022h.023zm-.176-8.6c.112-.0754.2334-.1359.361-.18.0496-.0051.0997 0 .1472.0152.0475.0151.0913.0399.1288.0728.0962.0933.1826.1962.258.307l-.289.284c-.151-.041-.262-.03-.334-.1-.1031-.1247-.1935-.2594-.27-.402zm.979 11.613c-.207.049-.4-.1-.384-.424 0-.144.177-.407.247-.39.156.038.3.217.53.41-.192.204-.283.375-.391.401zm.315-8.229.125-.186.084.067-.127.185zm.163 1.8.11-.062v.126zm-.329-6.5c-.0245-.0711-.0339-.1465-.0276-.2214.0064-.075.0284-.1477.0645-.2137.0362-.0659.0858-.1235.1455-.1691.0598-.0457.1285-.0783.2016-.0958l.109.122zm.662 3.969-.076-.092.185-.187.085.109zm.5 3.042-.012-.2.062-.011.036.193zm.119-5.694c-.035-.0677-.0541-.1426-.0558-.2188s.0141-.1518.0462-.221c.032-.0692.0795-.1302.1387-.1782s.1286-.0819.2029-.099zm1.179 4.512.655-.255c-.208.293-.318.508-.649.254zm1.311 8.872-.2-.045.014-.093h.183zm-6.4-16.287c-1.243.022-2.485.033-3.727.04l-.053.145-.169-.081.033-.062c-1.406.008-2.812.0127-4.218.014-.1708.0155-.343-.0061-.5046-.0635s-.3089-.1491-.4317-.2688c-.1228-.1198-.2182-.2647-.2796-.4249-.0614-.1601-.0874-.3317-.0761-.5028-.0217-.3811.0358-.7626.1688-1.1204.133-.3579.3388-.6842.6042-.9586.8453-.8587 1.8616-1.5302 2.983-1.971.785-.357 1.614-.591 2.41-.915.1586-.057.2913-.1692.3738-.3162s.1092-.3187.0752-.4838c-.0366-.171-.1312-.3241-.2676-.4334-.1365-.1093-.3066-.1682-.4814-.1666-.5165.021-1.0295.0947-1.531.22-.3477.0259-.6899.1017-1.016.225-.16.076-.294.006-.4-.185-.576-1.032-.206-1.913 1.033-2.446s2.534-.916 3.792-1.4c3.0014-1.0706 5.629-2.9866 7.566-5.517.146-.195.261-.3.488-.1.209.187.413.38.617.571l.307-.167.081.17-.274.1c1.0093.8848 1.8286 1.9653 2.408 3.176.2713.5586.4016 1.1752.3795 1.7958s-.1961 1.2263-.5065 1.7642c-.0448.0998-.1217.1817-.2185.2327-.0968.0509-.2079.0679-.3155.0483-.8533-.0675-1.7113-.0494-2.561.054-.692.075-1.392.106-2.081.213-.749.116-1.5.231-2.24.4-.5.116-1.007.2-1.5.363-.1842.0449-.3434.1602-.4436.3212-.1002.1609-.1334.3547-.0924.5398.0295.1676.1221.3176.2589.419.1367.1014.3071.1465.4761.126.967-.069 1.933-.165 2.9-.249 1.2133-.1214 2.4361-.1147 3.648.02.588.074 1.184.086 1.767.219 1.0394.135 2.0208.5567 2.834 1.218.2884.2604.4999.5948.6115.967s.1191.7679.0215 1.144c-.2282 1.0028-.6176 1.9619-1.153 2.84-.108.2027-.2809.3633-.491.456l.025.029c-.044.064-.1.194-.13.181-.0672-.0364-.1288-.0822-.183-.136-.0549.009-.1104.0144-.166.016-1.193-.019-2.387-.006-3.581-.006v-.068c-2.246 0-4.504-.028-6.76.013zm-5.572-6.019.111-.243.345.222-.095.2zm14.352-.977-.109.062-.007-.1zm-.151-.319-.689.055c.261-.541.264-.541.702-.054zm-.861 16.382v-.03h.214zm.363 6.545.108.015-.012.071c-.0339-.0067-.0673-.0157-.1-.027 0 0 .015-.039.015-.06z" fill="#459bab"/><path d="m58.7973 55.36c.0556-.0016.1111-.007.166-.016-.035-.031-.068-.062-.107-.1l.137-.274.258.295c.2101-.0927.383-.2533.491-.456.5354-.8781.9248-1.8372 1.153-2.84.0976-.3761.0901-.7718-.0215-1.144s-.3231-.7066-.6115-.967c-.8132-.6613-1.7946-1.083-2.834-1.218-.583-.133-1.179-.145-1.767-.219-1.2119-.1347-2.4347-.1414-3.648-.02-.966.084-1.932.18-2.9.249-.169.0205-.3394-.0246-.4761-.126-.1368-.1014-.2294-.2513-.2589-.419-.041-.1851-.0078-.3789.0924-.5398.1002-.161.2594-.2763.4436-.3212.491-.16 1-.247 1.5-.363.741-.173 1.491-.288 2.24-.4.689-.107 1.389-.138 2.081-.213.8497-.1034 1.7077-.1215 2.561-.054.1076.0196.2187.0026.3155-.0483.0968-.051.1737-.1329.2185-.2327.3104-.5378.4844-1.1436.5065-1.7642s-.1082-1.2372-.3795-1.7958c-.5794-1.2107-1.3987-2.2912-2.408-3.176l-.131.048-.045-.119.062-.034c-.2-.191-.408-.384-.617-.571-.227-.2-.342-.1-.488.1-1.937 2.5304-4.5646 4.4464-7.566 5.517-1.258.485-2.552.868-3.792 1.4s-1.609 1.414-1.033 2.446c.106.191.24.261.4.185.3261-.1233.6683-.1991 1.016-.225.5015-.1253 1.0145-.199 1.531-.22.1748-.0016.3449.0573.4814.1666.1364.1093.231.2624.2676.4334.034.1651.0073.3368-.0752.4838s-.2152.2592-.3738.3162c-.8.324-1.625.558-2.41.915-1.1214.4408-2.1377 1.1123-2.983 1.971-.2654.2744-.4712.6007-.6042.9586-.133.3578-.1905.7393-.1688 1.1204-.0113.1711.0147.3427.0761.5028.0614.1602.1568.3051.2796.4249.1228.1197.2701.2114.4317.2688s.3338.079.5046.0635c1.406 0 2.812-.0047 4.218-.014l.166-.31.118.046-.1.262c1.242-.007 2.484-.018 3.727-.04 2.256-.041 4.514-.009 6.771-.009v.066c1.198.004 2.392-.009 3.585.01zm.572-5.423c.017.012.043.019.048.037s-.014.046-.021.07c-.017-.011-.045-.018-.048-.035s.013-.047.021-.072zm-.4 2.345-.118.111-.148-.135.128-.119zm-.317-1.588.168.023-.168.945zm-1.286 2.432c.0201.0826.0318.167.035.252 0 .033-.062.06-.1.09-.0249-.0773-.0429-.1566-.054-.237.006-.023.068-.057.123-.105zm-.177-1.685c.0065.0166.0102.0342.011.052 0 .007-.026.011-.04.017-.0076-.0173-.013-.0354-.016-.054.004-.005.033-.01.049-.015zm-1.005-8.609.363.357-.476.123c.043-.163.067-.265.117-.48zm-1.4-.377c.06.121.12.242.179.363l-.2.1-.221-.348zm-15.084 11.047-.109-.024.021-.27.178.017zm.419-.5-.1-.03.053-.213.1.031zm.593-.672c-.012.006-.085-.08-.08-.089.0422-.0643.0886-.1258.139-.184.04.047.081.094.122.14-.0566.0504-.1171.0962-.181.137zm1.674.951h-.059l.02-.153h.05c-.004.056-.007.106-.011.156zm1.217-2.23-.355-.365.478-.114c-.039.157-.061.242-.123.483zm.967 1.225c-.01.007-.03-.017-.046-.028l.025-.068.048.032c-.009.027-.014.06-.027.072zm3.631-2.219-.029-.063.05-.006zm3.619 1.6c.0187.0025.0369.0079.054.016-.006.014-.01.039-.017.04-.0178-.0008-.0354-.0045-.052-.011.005-.018.01-.046.015-.046zm-.735 1.686-.023-.169h.962zm1.556.15-.143-.14.119-.128.134.149z" fill="#fff"/><path d="m21.5453 72.184h-3.947c-.391-.0082-.7795.0628-1.1424.2087-.3628.1458-.6924.3635-.9689.6401-.2765.2765-.4942.606-.6401.9689-.1458.3628-.2168.7514-.2086 1.1423v7.894c.0069.1313-.0139.2626-.061.3853-.0471.1228-.1195.2343-.2125.3273-.0929.0929-.2044.1653-.3272.2124-.1227.0471-.254.0679-.3853.061h-1.975c-.1313-.0065-.2625.0147-.3851.062s-.2339.1198-.3268.2128-.1653.2044-.2125.3271c-.0472.1226-.0682.2538-.0616.3851v1.973c-.0066.1312.0144.2624.0616.385s.1196.234.2125.3269.2043.1653.3269.2125.2538.0682.385.0616h1.974c.1313-.0065.2624.0147.385.062.1227.0473.234.1198.3269.2128s.1653.2044.2125.3271c.0472.1226.0682.2538.0616.3851v18.747c-.0066.131.0144.263.0617.385.0472.123.1197.234.2128.327.093.093.2044.166.3272.213.1227.047.254.068.3853.061h1.973c.1313.007.2626-.014.3853-.061s.2342-.12.3272-.213.1655-.204.2128-.327c.0473-.122.0683-.254.0617-.385v-16.777c.0082-.391-.0628-.7795-.2087-1.1423-.1458-.3629-.3636-.6924-.6401-.9689s-.6061-.4943-.9689-.6401c-.3628-.1459-.7514-.2169-1.1423-.2087h5.92c.1313.0069.2626-.0139.3853-.061.1228-.0471.2343-.1195.3272-.2124.093-.093.1654-.2045.2125-.3272.0471-.1228.0679-.2541.061-.3854v-1.974c.0067-.1313-.0142-.2626-.0613-.3853-.0472-.1227-.1195-.2342-.2125-.3272-.0929-.093-.2043-.1655-.327-.2128s-.2539-.0683-.3852-.0617h-1.967c-.1314.0071-.2628-.0136-.3857-.0606-.1228-.0471-.2345-.1195-.3275-.2124-.0931-.093-.1656-.2046-.2128-.3274-.0471-.1228-.0679-.2542-.061-.3856v-3.95c.0082-.3909-.0628-.7795-.2087-1.1423-.1458-.3629-.3636-.6924-.6401-.9689-.2765-.2766-.6061-.4943-.9689-.6401-.3628-.1459-.7514-.2169-1.1423-.2087h5.92c.1314.0066.2627-.0144.3855-.0618.1227-.0473.2342-.1199.3271-.213.093-.0931.1653-.2047.2124-.3276.0471-.1228.0679-.2542.061-.3856v-1.972c.0069-.1314-.0139-.2628-.061-.3856-.0471-.1229-.1194-.2345-.2124-.3276-.0929-.0931-.2044-.1657-.3271-.213-.1228-.0474-.2541-.0684-.3855-.0618zm-6.48 27.645h-.064v-.215l.088.007zm3.222 3.624c0 .09.018.153 0 .189-.187.313-.331.169-.611-.189zm-1.2-3.029c-.583.352-.685.306-1.305-.558zm.216-18.547c.011 0 .019.029.029.046l-.058.028-.029-.051c.015-.016.032-.028.054-.027zm-.353-1.688c.013.236.02.387.028.538-.136-.143-.353-.287-.032-.543zm.772-6.687-.009-.082.194-.066.012.16z" fill="#fff"/><path d="m35.9333 107.838c.278-.275.4968-.605.6428-.968s.2162-.752.2062-1.143v-13.056l-.259.779-.191-.083.355-.853.1.038v-5.568c-.002-.3107-.0498-.6193-.142-.916l-.3.105-.05-.178.311-.05c-.1395-.4033-.369-.7695-.671-1.071-.275-.2784-.604-.4976-.9669-.6439-.3629-.1464-.7519-.2169-1.1431-.2071h-5.92c-.3911-.0082-.7797.0628-1.1426.2087-.3629.146-.6925.3638-.969.6404s-.4942.6063-.64.9693c-.1458.3629-.2167.7516-.2084 1.1426v1.379l.1-.061.036.162-.132.023v17.243c-.0082.391.0628.78.2086 1.142.1459.363.3636.693.6401.969.2766.277.6061.494.969.64.3628.146.7513.217 1.1423.209h5.92c.3902.009.7782-.062 1.14-.209.3619-.146.6899-.365.964-.643zm-10.424-14.881-.126-.558-.021-.007.008-.052c-.016-.068-.034-.135-.051-.2l.084-.007-.033.21.009.036v.022c.294.091.273.309.3.51zm8.55 7.049-.03-.06c.02-.008.049-.027.058-.022s.021.038.03.058zm2.251-11.771.145.1-.08.088c-.034-.022-.089-.039-.1-.067s.022-.081.035-.121zm-.1 4.752.211.134-.051.087-.227-.065zm-.172 1.5.018-.036.023-.028-.006.044-.035.02-.146.289-.126-.131zm-.24-7.929.111.066-.1.155-.12-.07zm-.414 8v.11l-.055-.024zm-.3.224-.16.312-.1-.039.124-.325zm-.321-3.04.138.086-.028.038-.14-.081zm-.37 13.025h-.2v-.08h.2zm-3.852-18.951.469.778-.664-.117zm-4.671 7.946-.015-.011v-.057.035.006c.0049.0087.0093.0177.013.027l.436.349c-.378.055-.36-.18-.437-.35zm.713-1.519-.049-.087.271-.128zm.4-2.472-.008-.044.063.012zm.3 16.444-.191-.1.045-.1.19.1zm.128-1.711c-.043.025-.139-.13-.211-.2.121-.175.24-.354.371-.513.006-.008.114.153.24.323-.1201.144-.256.275-.405.389zm-.143-10.964c.507-.041.507-.041.468.621-.331-.131-.559-.24-.473-.622zm.327-1.049-.039-.2.336-.057.033.138zm5.246 11.264c.0066.131-.0144.263-.0617.385-.0473.123-.1197.235-.2127.328s-.2045.165-.3272.212c-.1228.048-.2541.069-.3854.062h-1.977c-.1314.007-.2627-.014-.3854-.062-.1227-.047-.2342-.119-.3272-.212s-.1655-.205-.2127-.328c-.0473-.122-.0683-.254-.0617-.385v-12.828c.0082-.391-.0628-.7795-.2087-1.1423-.1458-.3629-.3636-.6924-.6401-.9689s-.6061-.4943-.9689-.6401c-.3628-.1459-.7513-.2169-1.1423-.2087h5.92c.1314-.0066.2626.0144.3854.0617.1227.0473.2342.1197.3272.2127s.1654.2045.2127.3272c.0473.1228.0683.2541.0617.3854zm.274-18.46-.154.006c-.129-.245-.257-.49-.386-.734l.084-.066.482.295c-.014.18-.022.339-.031.498zm.549 4.513-.036.107-.053-.1zm-.065 2.108.354.039-.019.143-.353-.044zm.519 1.045c.183.371.05.55-.26.679-.162-.41-.162-.41.255-.68z" fill="#fff"/><path d="m51.0343 86.749v-1.742c.0066-.1313-.0144-.2625-.0616-.3851-.0472-.1227-.1196-.2341-.2125-.3271s-.2042-.1655-.3269-.2128c-.1226-.0473-.2537-.0684-.385-.062h-7.894c-.3908-.0073-.7791.0643-1.1416.2105s-.6918.364-.9681.6405c-.2764.2764-.4941.6058-.6402.9683-.1461.3626-.2176.7509-.2101 1.1417v11.176c.473.155.7.39.551.614l-.322.085c-.082-.23-.153-.431-.229-.643v9.488c-.0066.131.0144.263.0617.385.0473.123.1197.234.2128.327.093.093.2045.166.3272.213s.254.068.3853.061h1.973c.1313.007.2624-.014.3851-.062.1227-.047.2341-.119.3271-.212s.1654-.204.2128-.327c.0473-.123.0684-.254.062-.385v-5.336c-.365.305-.49.215-.62-.153l.62.1v-6.973c-.1439.1616-.3293.2809-.536.345-.306.089-.615-.248-.637-.626-.0033-.0905.0282-.1789.088-.247.0848-.0474.1766-.0812.272-.1h.22c.2303.0308.4413.145.593.321v-4.114c.0082-.3909-.0628-.7795-.2087-1.1423-.1458-.3629-.3636-.6924-.6401-.9689s-.606-.4943-.9689-.6401c-.3628-.1459-.7514-.2169-1.1423-.2087h9.867c.1292.007.2584-.0129.3795-.0586.121-.0456.2312-.116.3236-.2066s.1649-.1994.2129-.3195c.048-.1202.0705-.249.066-.3783-.0222-.0412-.0413-.0839-.057-.128-.007-.013.019-.057.061-.118zm-11.408 4.073.052-.022.02.063zm3.013 9.614.009-.011zm-.245-10.946c.013-.006.032.018.049.029-.008.023-.013.06-.024.066s-.033-.018-.049-.029c.007-.023.012-.06.024-.066zm-1.817 10.806.05-.033.01.13c-.0221-.031-.0422-.063-.06-.097zm1.779-.472c-.0085-.0204-.0136-.042-.015-.064 0-.009.031-.014.048-.021.0103.0203.0167.0424.019.065-.004.007-.038.013-.056.02zm-.3-.651.006.011-.006-.012.333.446c-.31 0-.517-.082-.327-.434l-.114.01-.006-.007zm.047 4.062-.1.062-.011-.1zm.008.558-.239.3-.168-.3zm-.492 1.253c0 .05.009.1.009.152h-.07l-.012-.152zm-.52-.813.16.04-.011.048-.162-.023zm-.267-11.928v.52h.006l-.01.032v.463l-.139-.019c.048-.148.1-.3.142-.444v-.032h-.221c-.0282-.0473-.0448-.1005-.0486-.1555-.0037-.0549.0056-.1099.0271-.1606.0216-.0506.0547-.0955.0969-.1309.0421-.0355.092-.0605.1456-.073zm7.538-7.887-.053-.035c.008-.025.013-.064.025-.071s.044.014.049.033-.014.048-.022.073z" fill="#fff"/><path d="m65.2853 116.584v-31.577c.0066-.1313-.0144-.2625-.0616-.3851-.0472-.1227-.1196-.2341-.2125-.3271s-.2042-.1655-.3268-.2128c-.1227-.0473-.2538-.0684-.3851-.062h-1.974c-.1313-.0063-.2624.015-.385.0623-.1226.0474-.2339.1199-.3269.2128-.0929.093-.1654.2043-.2128.3269s-.0686.2537-.0623.385v18.747c.0066.131-.0144.262-.0616.385s-.1196.234-.2125.327-.2042.166-.3268.213c-.1227.047-.2538.068-.3851.062h-5.92c.391.008.7795-.063 1.1423-.209.3629-.146.6924-.363.9689-.64.2765-.276.4943-.606.6401-.969.1459-.362.2169-.751.2087-1.142v-16.774c.0063-.1313-.0149-.2624-.0623-.385s-.1199-.2339-.2128-.3269c-.093-.0929-.2043-.1654-.3269-.2128-.1226-.0473-.2537-.0686-.385-.0623h-1.973c-.2379-.0048-.4693.0782-.65.233h-.005c-.017.015-.04.021-.057.038-.0918.0937-.1635.2052-.2106.3277-.0471.1224-.0687.2532-.0634.3843v20.72c-.0082.391.0628.78.2087 1.142.1458.363.3635.693.64.969.2766.277.6061.494.969.64.3628.146.7513.217 1.1423.209h3.947c.1312-.006.2623.015.3848.062s.2338.12.3267.212c.0929.093.1653.205.2126.327.0472.123.0683.254.0619.385v4.934c.0069.131-.0139.263-.061.385-.0471.123-.1195.235-.2124.328-.093.093-.2045.165-.3272.212-.1228.047-.2541.068-.3854.061h-1.976c-.131.006-.2618-.016-.3843-.063-.1224-.047-.234-.118-.3277-.21-.1361-.146-.2213-.332-.243-.531h-.009v-.032c-.0116-.049-.0199-.099-.025-.149v-1.974c.0061-.131-.0152-.262-.0626-.385-.0475-.122-.12-.233-.2129-.326s-.2042-.165-.3267-.213c-.1226-.047-.2536-.068-.3848-.062h-1.973c-.1313-.007-.2625.014-.3851.062-.1227.047-.2341.119-.3271.212s-.1655.204-.2128.327-.0684.254-.062.385v3.954c-.0082.391.0628.78.2087 1.142.1458.363.3636.693.6401.969.2765.277.606.494.9688.64.3629.146.7514.217 1.1424.209h5.92c.3909.008.7795-.063 1.1423-.209.3629-.146.6924-.363.9689-.64.2766-.276.4943-.606.6401-.969.1459-.362.2169-.751.2087-1.142zm-.822-9.5h.014v.125h-.019zm-10.908-12.686c-.011-.04-.038-.109-.03-.115.0481-.0273.099-.0491.152-.065l.039.091zm.582-4.831c.0798.1014.1485.211.205.327-.0612.1405-.1499.2674-.261.373-.029.024-.133-.133-.2-.207zm.23 14.482h-.023c-.079.232-.216.2-.378 0h.378l.006-.017.1-.016c-.012.005-.048.02-.086.034zm3.528 4.58h-.106v-.269h.106zm.692-.465h-.069l.009-.2.071.005zm1.305.014-.15-.009v-.044h.152zm.812-.583c-.017-.011-.043-.018-.047-.035s.013-.047.021-.071c.016.012.043.018.047.036s-.016.042-.024.066zm-6.972 5.685c-.02.013-.068-.062-.1-.1l.119-.193.124.127c-.0407.061-.0898.115-.146.162zm.458.1-.248-.38.375-.058c-.04.127-.066.208-.13.43zm.444 3.24-.115.025c-.022-.109-.044-.218-.065-.328h.18zm.27-1.157c-.054-.118-.107-.237-.16-.355l.091-.057.192.341zm.8-1.687-.416-.355c.489-.037.489-.037.414.347zm1.073 3.308c.111-.289.111-.289.418-.154zm.9 1.82-.091-.058.172-.245.1.066zm1-2.987.029-.06.016.068zm1.6 2.194h-.3l.021-.178.291.072zm1.195-11.5-.061-.343.145-.033.079.338zm.339-6.271-.091-.066.116.007zm.455 1.245-.053-.025.075-.041zm.355-15.558-.08-.008.03-.176.063.006zm.191 26.492.032-.016zm.332-10.921v-.044l.161-.012v.056zm.6 16.3-.089-.108.212-.219.1.119zm.4-23.206c-.016-.009-.022-.032-.032-.049.02-.006.044-.02.058-.014s.018.033.027.051c-.025.013-.049.027-.06.02zm.175 12.015-.062-.24.088-.032c.027.077.055.155.082.233z" fill="#459bab"/><path d="m76.5773 108.684c.3912.01.7803-.06 1.1434-.206s.6924-.365.9676-.643c.076-.077.134-.162.2-.244-.1297.039-.2683.037-.3968-.006s-.2404-.125-.3202-.234c-.0422-.076-.0758-.157-.1-.241.0106-.072.0287-.143.054-.212.0534-.112.1412-.204.2506-.263.1094-.058.2347-.08.3575-.063.1229.018.2369.074.3253.161.0885.087.1469.2.1666.323v.013c.2074-.418.3139-.879.311-1.345v-18.74c.0101-.391-.0601-.78-.2061-1.1429s-.3648-.692-.6429-.9671c-.1013-.0962-.2092-.1851-.323-.266-.013.014-.024.038-.037.045-.061.032-.156-.067-.313-.148.026-.034.041-.057.063-.087-.455-.2658-.9731-.404-1.5-.4h-5.92c-.391-.008-.7795.0631-1.1423.209-.3628.146-.6922.3639-.9687.6405-.2764.2766-.494.6062-.6397.9691-.1458.3629-.2166.7514-.2083 1.1424v18.746c-.0082.391.0628.779.2086 1.142s.3634.692.6398.969c.2764.276.6059.494.9686.64s.7511.217 1.142.209zm-5.19-1.272c-.015 0-.033-.013-.049-.021l.034-.038.051.023c-.012.016-.023.037-.037.039zm-.155-11.7-.132-.052.185-.425.144.056zm.32 5.625-.032-.065.058-.009zm1.364 6.855-.069-.138.072-.029.06.143zm-.7-.746c-.1263-.059-.2271-.161-.2841-.288-.0569-.127-.0661-.271-.0259-.404.0496-.141.1252-.271.223-.384.093.018.1844.043.273.077.213.107.516.02.587.449.035.254-.495.617-.778.555zm-.446-1.172.115-.111.16.191-.088.085c-.067-.055-.129-.106-.192-.16zm6.33-14.583c-.0356-.0184-.0691-.0405-.1-.066l.079-.09c.0289.0371.0556.0758.08.116 0 0-.053.049-.064.045zm.963-5.774c.0201.0024.0399.0071.059.014l-.016.047-.058-.014c0-.011.005-.042.01-.042zm-.041 18.48.063.019-.081.028zm-.309-3.379c.1033.072.1959.158.275.256-.055.1-.091.2-.109.191-.1727-.058-.34-.13-.5-.217-.0094-.085-.005-.171.013-.254.106-.019.2152-.009.316.029zm-.437-11.139.332.511c-.085.076-.183.233-.252.21-.1474-.0773-.2822-.1764-.4-.294zm-1.883-5.055c.014-.013.076.031.2.085l-.308.084c.0281-.0583.0627-.1133.103-.164zm-.672 19.812c-.045-.06-.131-.125-.128-.178.025-.126.0653-.249.12-.366.077.131.157.216.147.26-.0351.102-.0835.199-.144.289zm-1.584-17.712c.0969.1241.1766.2606.237.406.014.051-.124.261-.156.245-.1078-.0604-.1915-.1561-.237-.271-.02-.051.078-.197.156-.38zm-1.094.268.13.15-.113.09-.1-.18zm1.56.775c.1313-.0066.2626.0144.3854.0617.1227.0473.2342.1197.3272.2127s.1654.2045.2127.3272c.0473.1228.0683.254.0617.3854v9.038c.077.0431.1409.1064.1848.183.0438.0766.066.1637.0642.252-.0397.1536-.1268.2908-.249.392v4.935c.0066.131-.0144.263-.0617.385-.0473.123-.1197.235-.2127.328s-.2045.165-.3272.212c-.1228.048-.2541.069-.3854.062h-.08-.006-.38l-.04.238-.056-.238h-1.407c-.1314.007-.2626-.014-.3854-.062-.1227-.047-.2342-.119-.3272-.212s-.1654-.205-.2127-.328c-.0473-.122-.0683-.254-.0617-.385v-12.827c-.001-.1853-.017-.3703-.048-.553l-.073-.116c.014-.013.026-.022.039-.036-.1138-.5329-.3803-1.0211-.767-1.405-.2753-.2781-.6046-.497-.9677-.6432-.363-.1462-.7521-.2165-1.1433-.2068zm-5.591-1.588c.092-.02.217.274.328.427l-.286.4-.487-.418c.147-.145.286-.374.445-.404zm-.973 16.693h-.041l-.01-.149h.051zm-.283-15.212.676.427c-.755.169-.795.14-.676-.427zm.777 7.877-.081-.092.387-.283.078.109zm.56 9.227c-.224.017-.237-.3-.2-.526.0744-.192.1754-.372.3-.535.114.3.257.516.229.657-.034.173-.208.394-.329.404zm.227-6.308c-.062-.089-.126-.178-.182-.274-.0197.0082-.0407.0129-.062.014l.011-.09.024.007c.0434-.0906.0928-.1781.148-.262.0745.1303.1378.2669.189.408.01.035-.082.125-.128.197zm1.375 4.065.108.034-.04.247-.177-.037c.036-.081.073-.163.109-.244z" fill="#459bab"/><path d="m85.8943 105.727c.0069-.131-.0139-.263-.0611-.386-.0471-.122-.1196-.234-.2127-.327s-.2047-.165-.3276-.212c-.1228-.047-.2542-.068-.3856-.061h-1.973c-.1314-.007-.2627.014-.3855.061-.1229.047-.2344.119-.3274.212s-.1654.205-.2125.327c-.047.123-.0677.255-.0606.386v1.782c.026-.006.05-.015.076-.022l.033.1-.109.05v.067c-.0069.131.0139.263.061.385.0471.123.1194.235.2124.328s.2045.165.3272.212c.1228.047.2541.068.3854.061h1.973c.1313.007.2625-.014.3853-.061.1227-.047.2342-.12.3272-.213s.1655-.204.2128-.327c.0473-.122.0683-.254.0617-.385zm-1.2 1.887c-.25.188-.514.337-.756.489-.065-.071-.121-.1-.126-.146-.0057-.062.0109-.125.047-.176.2027-.221.418-.43.645-.626.05-.041.2.036.233.118.0278.115.0114.237-.046.341z" fill="#459bab"/><path d="m81.9483 74.884v18.489l.061.053c.05.043.06.177.107.329-.0528.0535-.1089.1036-.168.15v5.9c-.007.1314.0136.263.0607.386.047.123.1194.234.2124.327s.2045.166.3273.213.2542.068.3856.061h1.973c.1314.007.2628-.014.3856-.061.1228-.048.2343-.12.3273-.213.0931-.093.1655-.205.2128-.327.0472-.123.0681-.2546.0613-.386v-2.164l-.182-.036h-.005-.007v-.367h.06c-.018.123-.035.246-.052.369l.182-.059v-24.38c.0068-.1314-.0142-.2628-.0614-.3857-.0472-.1228-.1196-.2344-.2126-.3275s-.2046-.1657-.3274-.213c-.1228-.0474-.2541-.0684-.3856-.0618h-1.973c-.1314-.0066-.2627.0144-.3855.0618-.1227.0473-.2342.1199-.3271.213-.093.0931-.1653.2047-.2124.3276-.0471.1228-.0679.2542-.061.3856v1.465l.1.071zm3.853 4.9-.059.033-.009-.049zm-.423-1.685.085.4-.148.017c-.027-.129-.054-.258-.08-.387zm-.165 18.632.313.1-.035.139-.316-.086c.013-.054.026-.106.038-.157zm-.4-2.285-.446-.787c.41.199.41.199.449.783zm-.42 1.363c-.117.392-.574.625-.85.42-.053-.038-.081-.145-.165-.306.2309-.2535.4869-.483.764-.685.165-.099.33.31.254.567zm-.973-23.1c.0724.0359.1353.0882.1838.1528.0484.0646.0811.1397.0952.2192.042.419-.193.385-.495.372-.03-.026-.2-.093-.229-.225-.051-.233.233-.577.448-.52zm-.358 22.077-.106.072-.012-.11zm-.267 3.842.486.143-.038.172-.495-.129c.019-.063.029-.125.05-.187z" fill="#459bab"/><g fill="#fff"><path d="m10.2063 31.148c.0883.0806.1833.1535.284.218l.3.193c.092.064.189.122.286.193s.2.11.3.169.18.152.279.21.209.1.306.175.188.135.279.2.2.11.307.175l.286.193c.092.05.17.114.256.171s.177.108.262.166.164.12.256.17.189.123.28.186.2.1.3.156l.274.192c.1.058.182.128.28.185s.189.122.281.187c.1086.0723.2207.139.336.2.1186.0566.2405.106.365.148.1065.0306.2174.0431.328.037.1069-.0258.2084-.0701.3-.131.0894-.0678.164-.1532.219-.251.0689-.0933.1166-.2004.14-.314.0064-.1023.0003-.2051-.018-.306-.0219-.1034-.0555-.2041-.1-.3-.1-.224-.107-.218-.207-.442-.045-.1-.108-.2-.152-.309s-.089-.2-.14-.3-.082-.216-.12-.314-.1-.2-.146-.3-.069-.215-.113-.32-.1-.21-.145-.328-.106-.217-.157-.33c-.039-.085-.077-.183-.11-.274s-.064-.183-.109-.276c-.0329-.0843-.0508-.1736-.053-.264-.0106-.0907-.0106-.1823 0-.273.0071-.0897.0486-.1733.116-.233.066-.0644.1547-.1003.247-.1.1605-.0082.3202.0263.463.1.099.0551.1951.1151.288.18.1.044.21.091.3.142s.2.1.295.162.175.147.273.2c.128.079.271.135.4.214.1.065.2.136.3.2s.2.123.312.182.208.117.312.182.188.147.291.213.215.123.313.181c.1027.0589.2131.1034.328.132.112.024.2267.0324.341.025.1587-.0082.3108-.0659.435-.165.1136-.1022.1896-.2395.216-.39.0338-.1056.0533-.2152.058-.326-.0138-.1112-.041-.2203-.081-.325-.0184-.0416-.0328-.0847-.043-.129-.033-.079-.08-.146-.113-.225l-.134-.289c-.045-.092-.1-.186-.147-.277s-.064-.209-.109-.3l-.14-.283c-.051-.113-.094-.23-.151-.335s-.126-.213-.183-.32-.08-.24-.13-.352-.108-.205-.158-.317-.114-.2-.159-.3l-.15-.323c-.052-.1-.082-.216-.132-.328s-.115-.2-.172-.305l-.138-.321c-.085-.165-.066-.17-.144-.341s-.091-.159-.163-.324c-.0408-.0903-.0862-.1784-.136-.264-.0468-.0892-.0985-.1756-.155-.259 0 0-.014.011-.02.006s.009-.032 0-.045c-.0334-.0363-.0722-.0674-.115-.092-.0621-.0551-.1362-.0948-.2165-.116-.0802-.0212-.1643-.0233-.2455-.006-.0775.0262-.1481.0694-.2066.1266-.0585.0571-.1034.1266-.1314.2034-.0571.1313-.0708.2774-.039.417.0242.1614.07.3188.136.468l.245.443c.062.125.116.27.178.395s.156.246.224.378c.045.092.076.2.128.295l.133.289c.045.106.116.187.161.28s.076.209.121.3.121.181.167.274c.0337.0964.0507.1979.05.3.0044.1007-.004.2015-.025.3-.036.175-.109.227-.287.226-.1084-.001-.2162-.0154-.321-.043-.1113-.0217-.2199-.0552-.324-.1-.1-.058-.181-.141-.279-.2s-.2-.1-.294-.162-.2-.116-.287-.179c-.135-.086-.27-.16-.4-.24-.153-.093-.3-.193-.446-.28-.1-.077-.207-.143-.31-.207s-.22-.131-.331-.19c-.1064-.0664-.2174-.1252-.332-.176-.0815-.038-.1666-.0678-.254-.089-.0849-.0304-.1732-.0499-.263-.058-.134-.0028-.2668.0267-.387.086-.1243.0415-.2345.117-.318.218-.0735.1106-.1264.2336-.156.363-.0248.119-.0302.2413-.016.362.0218.119.0591.2347.111.344.044.106.083.2.128.3l.12.3c.045.092.1.186.142.283s.088.2.134.29.063.208.1.306c.067.144.06.15.122.289s.079.145.14.283.054.156.115.295c.0433.096.0817.1941.115.294.031.1.077.2.1.293.0127.1018.0191.2044.019.307.0004.0509-.0099.1013-.0303.148-.0203.0467-.0502.0886-.0877.123-.0314.029-.0683.0514-.1085.0658-.0402.0145-.0829.0206-.1255.0182-.1276-.0036-.2544-.0214-.378-.053-.1081-.0577-.212-.1228-.311-.195-.1066-.0545-.2089-.117-.306-.187-.085-.057-.164-.121-.242-.183s-.158-.113-.243-.171-.158-.113-.238-.163c-.09-.065-.183-.115-.261-.179s-.164-.12-.255-.183l-.256-.172c-.091-.064-.17-.127-.255-.184-.134-.086-.281-.173-.4-.239-.1618-.0657-.3387-.0854-.511-.057-.1121.0124-.2194.0527-.312.117-.0915.0682-.163.1597-.207.265-.0263.0511-.0422.107-.0469.1643-.00462.0573.0021.115.0199.1697.0344.1115.0984.2117.185.29z"/><path d="m23.0603 23.821c.062.11.127.208.189.317l.177.311c.062.109.088.228.15.339s.135.205.193.307.1.22.166.33.135.2.192.3.135.2.2.313c.0797.1425.1441.293.192.449.0224.1028.0271.2086.014.313.0026.1047-.019.2085-.0633.3034-.0442.0949-.1099.1783-.1917.2436-.0553.0663-.1181.126-.187.178-.042.034-.079.076-.122.11-.016.009-.02 0-.035.01-.0632.0568-.1202.1202-.17.189-.0615.0731-.1037.1604-.123.254-.0079.0958.0172.1914.071.271.0523.0781.1289.1369.218.167.0831.047.1794.0653.274.052.1681-.0458.3287-.1156.477-.207.163-.092.159-.1.322-.192s.172-.076.335-.169.15-.115.313-.207.184-.073.347-.165.168-.084.331-.176c.108-.061.221-.134.337-.2l.287-.161c.094-.053.186-.125.279-.178.1216-.0565.2372-.1252.345-.205.1211-.1019.2016-.2438.227-.4.0146-.087-.0032-.1763-.05-.251-.0378-.0853-.1053-.1539-.19-.193-.0801-.031-.1656-.0457-.2515-.0431s-.1704.0223-.2485.0581c-.0548.0158-.1083.0359-.16.06-.087.028-.161.059-.24.083-.1097.0317-.2229.0502-.337.055-.1152-.0137-.2257-.0537-.323-.117-.1037-.0484-.197-.1163-.275-.2-.0812-.0921-.1523-.1927-.212-.3-.0825-.0966-.1577-.1992-.225-.307-.053-.094-.1-.205-.152-.307s-.139-.19-.2-.293-.1-.205-.153-.307-.107-.208-.165-.31-.126-.187-.188-.3c-.053-.094-.118-.191-.175-.294s-.084-.221-.142-.323c-.049-.086-.125-.167-.166-.258-.0389-.098-.0723-.1982-.1-.3-.0427-.1002-.0713-.2059-.085-.314-.0175-.1062-.0127-.2148.014-.319.0351-.099.0872-.191.154-.272.0563-.0931.1256-.1777.206-.251.1-.089.211-.171.31-.268.0884-.0682.1534-.1622.186-.269.0198-.054.0256-.1121.0169-.1689-.0087-.0569-.0318-.1106-.0669-.1561-.0619-.075-.1459-.1285-.24-.153-.0932-.0228-.1899-.0279-.285-.015-.167.0476-.3261.1198-.472.214-.133.075-.137.067-.277.146s-.132.074-.276.145c-.1.057-.214.111-.315.167s-.209.139-.31.2-.205.132-.314.193-.214.11-.323.172-.218.1-.327.164c-.209.118-.2.134-.418.256-.0855.0407-.166.091-.24.15-.072.0613-.1356.1319-.189.21-.0474.0582-.0773.1288-.0859.2033-.0087.0746.0041.1501.0369.2177.0306.0781.0837.1452.1527.193.0689.0477.1505.0738.2343.075.0842-.0167.1671-.0395.248-.068.1206-.0305.2389-.0696.354-.117.1124-.0483.2351-.0679.357-.057.1233.0069.2447.0328.36.077.1102.0521.2083.1267.288.219.1125.1094.213.2304.3.361.107.207.1.212.215.415z"/><path d="m28.2373 18.484c-.0879-.0374-.1837-.0527-.2789-.0445s-.1869.0396-.2671.0915c-.078.0498-.1401.121-.179.205-.0565.0759-.091.1658-.1.26.0014.0959.0158.1911.043.283.031.1.038.2.071.281s.072.208.111.31.087.2.126.3.1.208.137.308.086.2.125.3l.12.311.12.31c.065.168.04.178.1.345l.131.336c.065.168.073.165.138.333s.073.162.142.338.056.172.121.339l.13.338c.065.166.048.172.117.349s.081.161.146.329.074.166.139.334c.035.093.071.185.118.282.0351.11.0881.2134.157.306.0749.0888.1708.1575.279.2.1023.0516.2168.0741.331.065.1118-.007.2219-.0303.327-.069.058-.022.126-.019.185-.042.224-.087.218-.1.442-.191.158-.061.314-.1.464-.16l.324-.125c.1-.039.2-.106.306-.148s.227-.058.335-.1.209-.1.309-.14c.1252-.0504.2451-.1131.358-.187.1312-.0725.2318-.1901.283-.331.023-.0717.0301-.1476.021-.2223-.0092-.0748-.0344-.1466-.074-.2107-.0377-.063-.0886-.1171-.1492-.1585s-.1294-.0692-.2018-.0815c-.0853-.012-.1718-.012-.257 0-.1014.0197-.2015.045-.3.076-.1031.0129-.204.0394-.3.079-.083.032-.16.081-.243.113s-.176.039-.259.071c-.125.048-.119.066-.252.117-.1212.0403-.2474.0632-.375.068-.1045.0192-.2115.0192-.316 0-.1059-.0202-.2074-.0588-.3-.114-.0905-.0618-.1691-.1393-.232-.229-.0491-.0763-.0903-.1574-.123-.242-.04-.081-.073-.165-.1-.249-.059-.15-.067-.147-.126-.3l-.117-.3c-.058-.153-.05-.157-.108-.307-.039-.1-.087-.2-.126-.3s-.089-.2-.128-.305l-.121-.309c-.042-.114-.072-.217-.112-.318s-.089-.207-.128-.307-.056-.216-.095-.317-.087-.2-.129-.307l-.12-.311c-.0435-.1124-.0953-.2213-.155-.326l-.155-.326c-.0753-.1322-.1905-.2372-.329-.3z"/><path d="m34.3773 17.107c.025.109.043.226.067.33s.057.209.082.314.067.212.092.317.057.209.082.313.05.22.075.326l.075.324c.04.176.014.182.055.357l.081.351c.041.176.049.174.09.349s.049.175.092.36.032.177.072.352l.081.35c.041.177.024.181.066.364s.058.172.1.347.049.173.09.349c.022.1.044.192.077.295.0189.1141.0568.2243.112.326.0616.0986.1464.1806.247.239.0943.0651.2046.1035.319.111.1114.0084.2235.0013.333-.021.061-.014.128 0 .189-.016.234-.054.23-.071.465-.125.165-.038.325-.056.481-.093l.339-.078c.1-.023.211-.076.324-.1s.232-.026.344-.051.222-.07.326-.094c.1309-.0325.2585-.0773.381-.134.1401-.0536.2561-.1558.327-.288.0326-.0678.0502-.1419.0516-.2171.0014-.0753-.0135-.1499-.0436-.2189-.0284-.0677-.0711-.1284-.1251-.1781s-.1181-.0872-.1879-.1099c-.0831-.0226-.1689-.0337-.255-.033-.1005.0051-.2007.0158-.3.032-.1051-.002-.21.0097-.312.035-.087.02-.17.058-.257.077s-.179.014-.266.034c-.131.03-.127.048-.265.079-.1256.0241-.254.0288-.381.014-.1064.0035-.2125-.0128-.313-.048-.1027-.0351-.1985-.0879-.283-.156-.082-.0737-.1498-.1618-.2-.26-.0366-.0829-.0657-.1689-.087-.257-.028-.086-.049-.174-.069-.261-.037-.159-.045-.157-.082-.314l-.073-.316c-.036-.156-.028-.158-.064-.316-.025-.1-.058-.208-.082-.313s-.059-.22-.084-.325l-.075-.325c-.026-.111-.042-.218-.066-.324s-.059-.217-.084-.322-.025-.229-.049-.334-.057-.208-.084-.322l-.075-.326c-.027-.1172-.0628-.2322-.107-.344l-.106-.348c-.0556-.1403-.1535-.2598-.28-.342-.0835-.0508-.1784-.08-.276-.085-.0934-.0045-.1865.014-.271.054-.0847.0373-.1563.0989-.206.177-.0665.0672-.1135.1512-.136.243-.013.0949-.013.1911 0 .286.018.108.012.202.029.29z"/><path d="m46.6163 16.097c-.01.109-.012.216-.014.333.0035.1281.0223.2553.056.379.0392.1219.094.2382.163.346.0593.1118.1326.2156.218.309.0889.1034.1896.196.3.276.1071.0806.219.1548.335.222.1211.0596.2452.1127.372.159.1.047.185.1.283.14s.2.067.3.1c.08.029.159.075.239.1s.168.067.248.1c.1307.0505.2552.1159.371.195.1148.0806.2181.1765.307.285.0783.0908.1318.2004.155.318.0351.1166.0484.2386.039.36-.0225.1191-.0702.232-.14.331-.0758.0997-.1642.1891-.263.266-.0968.0833-.2062.1507-.324.2-.1117.0229-.2251.0359-.339.039-.1091.017-.2196.0244-.33.022-.1112-.0185-.2211-.0442-.329-.077-.1057-.0212-.2097-.0503-.311-.087l-.141-.057c-.099-.0186-.1993-.029-.3-.031-.0995-.0137-.2005-.0137-.3 0-.1093.0177-.2124.0623-.3.13-.0828.0791-.1455.1768-.183.285-.0202.1035-.0065.2108.039.306.0395.0913.099.1726.174.238.0554.0451.1146.0852.177.12.079.047.158.093.238.131.0792.0445.1622.082.248.112.1.028.2.03.311.05s.2.049.311.059.214-.014.321-.012c.08 0 .169.011.258.013.036 0 .036-.017.063-.017.045 0 .089.029.142.03.116-.008.232-.015.348-.03.1184-.0184.2351-.0465.349-.084.112-.0401.2204-.0896.324-.148.1-.052.215-.078.305-.13.0915-.0654.179-.1362.262-.212.0903-.0628.175-.1334.253-.211.0712-.0852.1326-.1781.183-.277.0661-.0863.1244-.1783.174-.275.0453-.1017.0827-.2066.112-.314.0313-.1235.0454-.2507.042-.378.012-.134.023-.26.025-.378-.0093-.1302-.028-.2595-.056-.387-.0217-.1276-.0586-.2522-.11-.371-.0652-.1157-.1441-.2231-.235-.32-.0798-.102-.1745-.1913-.281-.265-.105-.0811-.2171-.1524-.335-.213-.1129-.0616-.2314-.1122-.354-.151-.133-.046-.256-.121-.389-.169-.151-.056-.3-.094-.452-.151-.089-.029-.186-.075-.283-.113-.0857-.0502-.1682-.1057-.247-.166-.112-.0606-.2159-.1352-.309-.222-.0911-.0779-.1631-.1757-.2106-.2857-.0475-.1101-.0692-.2296-.0634-.3493.0017-.1102.0217-.2193.059-.323.0471-.1005.1088-.1935.183-.276.0791-.0767.1707-.1393.271-.185.0949-.0496.1957-.0869.3-.111.1025-.0284.2072-.0481.313-.059.107 0 .213-.013.32 0 .045.01.036.028.08.037.116.021.231.049.355.07s.286-.014.455-.011c.095.0077.1904-.0091.277-.049.0838-.0501.1553-.1184.209-.2.0695-.086.1051-.1945.1-.305.0001-.0561-.0112-.1116-.0332-.1631-.022-.0516-.0543-.0982-.0948-.1369-.0646-.0601-.1357-.1128-.212-.157-.0721-.053-.1487-.0996-.229-.139-.116-.029-.24-.04-.365-.06-.1166-.0293-.2353-.0494-.355-.06-.125-.011-.249-.04-.365-.042-.1229.0031-.2453.0162-.366.039-.125.015-.25.013-.366.038s-.233.086-.35.12c-.1161.0367-.23.0801-.341.13-.0957.0438-.1888.0929-.279.147-.0912.0489-.1784.1047-.261.167-.0865.0648-.1657.1389-.236.221-.0717.0862-.1357.1785-.191.276-.0636.0948-.122.1929-.175.294-.0357.108-.0611.2192-.076.332-.0338.1087-.0583.2201-.073.333zm1.878-1.861.187.067-.019.087h-.185z"/><path d="m58.4973 16.629c-.048.09-.089.191-.146.28s-.107.188-.155.278-.131.174-.187.262c-.078.139-.087.138-.162.267s-.071.151-.147.282-.094.134-.17.265c-.0519.0916-.1086.1804-.17.266-.066.087-.114.177-.177.255-.0748.0699-.154.1351-.237.195-.041.0303-.0879.0517-.1377.0627s-.1014.0115-.1513.0013c-.0843-.018-.1583-.0682-.206-.14-.0716-.1052-.1316-.2179-.179-.336-.0178-.1212-.0268-.2435-.027-.366-.0181-.1185-.0274-.2381-.028-.358 0-.1 0-.2.005-.3s0-.194-.006-.3 0-.195-.007-.288c0-.112-.015-.216-.011-.317s0-.2 0-.313l-.013-.308c0-.111 0-.212 0-.314-.01-.159-.026-.329-.042-.462-.0414-.1694-.1298-.3237-.255-.445-.0752-.0844-.171-.1478-.278-.184-.1089-.0344-.225-.0385-.336-.012-.0569.0087-.1116.0286-.1608.0584-.0493.0299-.0922.0692-.1262.1156-.0711.0907-.1175.1981-.135.312-.013.1185-.0157.238-.008.357l.02.355c0 .112.013.225.013.345s.03.229.041.341-.017.236-.007.35.039.23.039.35 0 .232.005.343.03.228.039.351l.013.343c.013.105.008.205.012.308s.017.207.021.309 0 .2.013.308.013.224.015.335.041.222.051.335l.007.334c.011.113 0 .223.015.336s.013.225.015.335c.0056.13.0189.2596.04.388.0254.129.0588.2562.1.381.0371.1048.0923.2022.163.288.0837.0717.1795.1279.283.166.1072.032.2198.0419.331.029.116-.0002.2307-.0244.337-.071.0864-.0569.1656-.1241.236-.2.0718-.0767.1342-.1616.186-.253.122-.212.113-.214.234-.426.059-.1.1-.207.161-.305s.107-.188.157-.287.127-.193.183-.281.1-.2.159-.3.133-.182.192-.28.111-.205.181-.309.112-.214.173-.321c.046-.082.1-.17.158-.25s.109-.16.157-.25c.0492-.0766.1111-.1442.183-.2.0674-.0616.1411-.1159.22-.162.0768-.0462.1683-.0616.256-.043.0902.0179.1703.0694.224.144.1014.1241.1683.2728.194.431.0137.1122.0217.225.024.338.021.107.05.224.062.328s.033.22.044.333-.015.228 0 .341c.012.151.051.3.063.448.009.122.009.242.018.364s.019.235.037.359.028.237.037.359-.009.239 0 .361.027.245.037.358c.0133.1177.0426.2331.087.343.0465.1049.1074.2029.181.291.0491.0539.1037.1025.163.145h.007v.006c.066.0475.1408.0815.22.1.1498.0313.3057.0115.443-.056.106-.0342.207-.0827.3-.144.0817-.0761.1536-.1621.214-.256.0228-.0396.0496-.0768.08-.111.044-.073.071-.15.115-.223l.155-.278c.048-.091.089-.192.137-.283s.131-.174.179-.263l.147-.281c.06-.106.13-.211.182-.318s.1-.228.149-.336.148-.206.209-.312.1-.207.163-.314.093-.209.152-.307l.171-.311c.051-.1.127-.192.187-.3s.094-.209.146-.317l.178-.3c.084-.166.1-.153.192-.316s.074-.168.164-.323c.0492-.0856.094-.1737.134-.264.045-.0905.0844-.1837.118-.279 0 0-.017 0-.015-.012s.03-.012.034-.03c.009-.0478.011-.0966.006-.145.0079-.0828-.0036-.1664-.0337-.244-.03-.0775-.0777-.1471-.1393-.203-.0672-.0469-.1439-.0782-.2247-.0917s-.1636-.0088-.2423.0137c-.1394.0315-.2653.106-.36.213-.1164.1147-.2172.2441-.3.385l-.214.458c-.065.124-.149.253-.214.376s-.107.271-.174.4c-.048.091-.114.178-.164.277l-.155.278c-.058.1-.083.2-.131.294s-.124.184-.172.274-.074.2-.122.295c-.0583.0847-.1307.1588-.214.219-.0783.0617-.1639.1135-.255.154-.029.0194-.0619.0322-.0963.0377-.0345.0054-.0697.0033-.1033-.0062s-.0647-.0262-.0911-.0489c-.0265-.0227-.0478-.0509-.0623-.0826-.0624-.0888-.1144-.1844-.155-.285-.0481-.1026-.0846-.2103-.109-.321-.012-.113.006-.229-.005-.342s-.032-.219-.043-.333-.022-.226-.024-.337c-.009-.16-.03-.312-.041-.462-.014-.179-.02-.356-.036-.525 0-.129-.007-.251-.015-.373s-.025-.255-.042-.379c-.0096-.125-.0273-.2493-.053-.372-.0182-.0882-.0443-.1745-.078-.258-.0261-.0862-.0627-.1688-.109-.246-.077-.1104-.18-.2-.3-.261-.1067-.0766-.2329-.1213-.364-.129-.133.0047-.2639.0342-.386.087-.11.0503-.2113.1178-.3.2-.0835.0879-.1551.1864-.213.293-.058.1-.115.185-.163.276zm3.245 5.057c.005 0 .02.038.031.058l-.109.051-.026-.064c.0335-.0181.0682-.0338.104-.047zm-1.526-5.939.086.12-.278.239-.089-.126zm-.514 1.049.022.072-.055-.012z"/><path d="m66.7773 25.625.323.15c.162.074.166.066.327.141s.155.091.316.166.174.07.336.145.158.083.32.157l.016.008c.016.008.036.007.052.014l.089.042.246.084c.1273.04.2637.04.391 0 .0844-.0246.1619-.0682.2268-.1275.0648-.0593.1152-.1327.1472-.2145.02-.0854.0186-.1744-.0038-.2591-.0225-.0847-.0655-.1627-.1252-.2269-.0526-.0626-.1116-.1196-.176-.17-.09-.062-.168-.127-.253-.177s-.178-.1-.267-.143l-.356-.165c-.113-.052-.246-.084-.359-.136-.146-.068-.272-.156-.417-.223-.024-.011-.064-.009-.089-.02-.1583-.0694-.3029-.1666-.427-.287-.0865-.0891-.1545-.1945-.2-.31-.0427-.1163-.0558-.2414-.038-.364.0064-.1297.0355-.2573.086-.377.064-.119.109-.237.167-.32.0777-.0933.1732-.1701.281-.226.1036-.0566.219-.0881.337-.092.1161-.0044.2322.0094.344.041.113.032.21.077.31.113.1032.0355.2035.0789.3.13.113.052.238.08.351.132s.207.126.32.178c.048.023.052.015.1.038.0886.0369.1803.066.274.087.0902.0233.1828.0361.276.038.0949.0009.1887-.0203.274-.062.0888-.0436.1621-.1134.21-.2.0359-.0979.0442-.2037.024-.306-.0265-.0976-.0754-.1877-.143-.263-.0673-.0767-.1447-.144-.23-.2-.0679-.0496-.1383-.0957-.211-.138-.016-.008-.028.017-.044.01-.089-.041-.178-.1-.267-.144l-.283-.131c-.1-.045-.182-.094-.279-.139-.1212-.0491-.2388-.1066-.352-.172-.1106-.0649-.2133-.1424-.306-.231-.0758-.0709-.1367-.1562-.179-.251-.0262-.095-.037-.1936-.032-.292.0008-.1002.017-.1997.048-.295.019-.041.046-.078.065-.119.011-.024.01-.064.021-.089.0558-.1243.1372-.2354.239-.326.1059-.0885.2344-.1457.371-.165.1355-.0042.2707.0144.4.055.129.04.246.063.363.108.119.0384.2349.0856.347.141l.267.123c.089.041.173.07.263.111s.166.107.255.149.1.008.2.052c.142.0774.3003.1203.462.125.0923-.004.1822-.0305.262-.077.0836-.0424.1559-.1041.211-.18.0473-.0892.0665-.1907.055-.291-.0185-.0971-.0608-.1882-.123-.265-.0494-.0779-.1089-.1488-.177-.211-.0723-.0532-.1497-.0991-.231-.137-.078-.045-.155-.091-.235-.128-.105-.048-.2-.114-.308-.162s-.206-.086-.311-.134-.214-.089-.319-.137-.2-.114-.3-.159-.207-.108-.312-.157-.214-.089-.319-.136-.21-.076-.315-.124h-.008c-.0893-.0478-.1827-.0876-.279-.119-.0948-.0304-.1913-.0555-.289-.075-.138-.0412-.285-.0412-.423 0-.134.0582-.249.1528-.332.273-.0653.0972-.1224.1995-.171.306-.053.116-.119.214-.171.328s-.09.214-.143.329-.11.216-.159.323l-.154.336c-.049.106-.086.227-.135.334s-.11.216-.159.321-.094.225-.146.339l-.151.328c-.049.106-.126.209-.175.315s-.069.235-.122.349-.11.217-.159.322-.093.225-.143.331-.126.209-.178.324-.11.216-.159.323-.069.235-.119.342c-.037.081-.092.135-.114.2-.0393.1264-.0505.2598-.033.391.0098.1348.0546.2648.13.377.0841.1031.1882.1881.306.25.0831.047.1685.0898.256.128.007 0 0 .012.012.016.105.049.206.086.3.13s.187.106.283.151c.123.053.24.097.349.149zm2.873-2.645h.107v.342h-.107z"/><path d="m73.6103 25.75c-.1.063-.186.144-.285.208l-.291.169c-.1.063-.206.109-.3.172s-.2.154-.315.219-.229.126-.339.192c-.086.061-.179.117-.265.177s-.161.14-.245.213c-.0754.0625-.1321.1445-.164.237-.041.0865-.0553.1833-.041.278.0257.0979.0747.1882.143.263.081.0641.1747.1102.275.135.0896.0416.1872.0631.286.0631s.1964-.0215.286-.0631c.09-.036.18-.072.281-.123.078-.033.149-.1.249-.155.0987-.0397.2017-.0676.307-.083.1031-.0333.2106-.0508.319-.052.1026.0024.2041.0224.3.059.1045.0211.2054.0568.3.106.1.066.208.122.3.189s.175.154.283.217.205.111.3.177.182.159.272.233.193.144.288.211c.0975.0801.1816.1753.249.282.0794.0974.1423.2072.186.325.0246.1254.034.2533.028.381l-.009.015c-.0051.1234-.0181.2463-.039.368-.0241.1021-.0315.2075-.022.312.0174.1049.0441.2079.08.308.0028.0899.0298.1775.0782.2533.0484.0759.1164.1372.1968.1777.015.01.02.036.032.034.0605.0376.128.0627.1984.0739s.1424.0081.2116-.0089c.1393-.0378.2593-.1267.336-.249 0-.007.019 0 .024-.005.0497-.0914.0908-.1871.123-.286.028-.1.047-.208.07-.3.024-.114.015-.241.032-.36s.047-.208.069-.3.034-.206.062-.307.074-.233.1-.347.035-.238.058-.365l.08-.349c.018-.119.03-.231.055-.345s.049-.228.075-.343.052-.215.077-.329.044-.22.064-.328.057-.222.077-.329.037-.225.057-.332.072-.213.1-.327.032-.219.057-.332.042-.2.056-.3.022-.2.049-.305l.049-.3c.0294-.1073.0512-.2166.065-.327.0063-.111.0039-.2223-.007-.333-.0218-.1148-.063-.2251-.122-.326-.051-.1041-.124-.1959-.214-.269-.0928-.0725-.2003-.1238-.315-.1502-.1148-.0265-.2339-.0274-.349-.0028-.1621.0338-.3166.0968-.456.186-.093.056-.178.117-.272.173l-.286.162c-.0782.0547-.1597.1044-.244.149-.08.053-.159.119-.234.166-.093.055-.179.116-.272.171s-.174.11-.261.159-.182.1-.267.165-.156.1-.237.153-.163.095-.238.141-.191.087-.284.142-.164.127-.257.183-.183.092-.269.153c-.0919.0649-.187.1249-.285.18zm4.147-.865.056.082-.167.138-.058-.083zm-1.025-.109h-.47c.156-.282.279-.324.47 0zm-1.679 1.594.11-.258.07.054c.0464-.0528.0954-.1032.147-.151.098-.0804.2005-.1552.307-.224.1-.051.2-.1.309-.148.0971-.0507.2003-.089.307-.114.0641-.0123.1302-.0092.1929.0093.0626.0184.1199.0516.1671.0967.0516.0385.094.088.124.1449.0301.0569.0472.1198.05.1841.0056.1389-.0001.278-.017.416-.0071.1403-.0275.2796-.061.416-.0276.0959-.061.1901-.1.282-.0509.0884-.1091.1724-.174.251-.059.1071-.1494.1937-.259.248-.1172.0418-.2447.0453-.364.01-.162-.024-.3152-.0891-.445-.189l.01-.015s-.015.023-.022.017c-.1216-.078-.2241-.1822-.3-.305-.0909-.114-.1424-.2543-.147-.4.0117-.1131.0479-.2223.106-.32zm-.25.149-.64.278-.028-.43z"/><path d="m81.9153 32.146c-.127.128-.139.115-.26.236l-.241.243-.241.242c-.083.083-.153.166-.242.243l-.241.242c-.082.083-.159.172-.235.261l-.2.28c-.0905.1169-.1438.2584-.153.406.0157.1449.0827.2793.189.379.006.006.006.019.013.026.0969.0987.2278.1567.366.162.1418.0074.2822-.0316.4-.111.0783-.0465.1506-.1026.215-.167.089-.076.159-.171.248-.26.127-.128.133-.122.26-.249s.108-.134.235-.262c.089-.089.184-.159.267-.242s.165-.179.247-.262.178-.166.261-.249.184-.159.266-.242.153-.192.235-.275.165-.177.248-.26l.253-.256c.089-.089.191-.153.273-.235s.159-.148.254-.231c.076-.063.152-.153.247-.224.1062-.073.2243-.1271.349-.16.1236-.0341.2527-.0436.38-.028.1259.0348.2454.0895.354.162.0457.0289.0882.0624.127.1.0256.0101.049.025.069.044.0451.0297.0876.0631.127.1.1.07.19.152.291.227.0992.0755.2171.1225.341.136.0627.003.1254-.0068.1842-.0288s.1125-.0557.1578-.0992c.0416-.0475.0728-.1032.0916-.1635.0187-.0602.0247-.1238.0174-.1865-.0034-.1244-.0477-.2443-.126-.341-.038-.051-.006-.069-.044-.12l-.189-.227c-.064-.075-.133-.157-.2-.226s-.165-.15-.241-.226-.151-.164-.227-.239l-.234-.232c-.082-.082-.17-.145-.252-.227s-.145-.157-.228-.239l-.233-.233c-.077-.075-.165-.15-.241-.226s-.164-.151-.24-.226-.151-.164-.227-.239c-.0016-.0018-.0024-.0041-.0024-.0065s.0008-.0047.0024-.0065c-.082-.082-.164-.163-.253-.238s-.189-.126-.284-.194c-.102-.0783-.2264-.1218-.355-.124-.0641-.0025-.128.0081-.1878.0311-.0599.023-.1144.0581-.1602.1029-.0837.0945-.1294.2168-.128.343.0149.1195.0654.2316.145.322.0443.0762.0928.15.145.221.051.075.121.145.171.208.0813.0942.1551.1945.221.3.0465.0889.0783.1849.094.284.0163.1002.0094.2028-.02.3-.0119.0989-.04.1952-.083.285-.0833.1447-.1882.2759-.311.389l-.247.249c-.076.076-.165.153-.248.236s-.146.172-.228.255-.172.159-.248.236c-.127.127-.114.14-.241.267zm2.343-3.214.054.143c-.041.016-.092.056-.122.043s-.038-.082-.056-.126zm-.1 1.408c.008-.009.043.01.137.037l-.2.064c.0157-.0358.0355-.0697.059-.101z"/><path d="m13.5923 117.345c-.0456-.04-.1026-.065-.163-.071-.0541-.006-.1086-.009-.163-.008-.047 0-.091-.012-.139-.012s-.087.007-.135.007-.091 0-.134 0-.092-.007-.139-.007c-.0434.006-.0872.009-.131.007-.044 0-.088-.023-.135-.027-.0186-.002-.0374-.002-.056 0-.0377-.011-.0736-.027-.107-.048-.0447-.024-.08-.062-.1-.108-.0163-.047-.0163-.097 0-.144.0118-.04.0279-.079.048-.116.0162-.04.0373-.077.063-.112.04-.048.087-.1.127-.148.024-.032.056-.06.083-.091s.052-.061.08-.093l.083-.1c.028-.032.056-.068.084-.1s.051-.069.083-.1.055-.076.087-.111.06-.072.091-.112.056-.076.088-.113.067-.067.1-.1.055-.076.087-.116c.018-.016.035-.034.051-.052l.092-.12c.0312-.04.0603-.081.087-.124.0272-.042.051-.086.071-.132.0175-.042.0296-.087.036-.132.0114-.044.0168-.09.016-.136-.0032-.046-.0151-.09-.035-.131-.018-.041-.0471-.075-.084-.1-.0375-.026-.0791-.044-.123-.056-.0525-.011-.1056-.019-.159-.024-.048 0-.1-.012-.154-.012h-.3c-.048 0-.1 0-.151 0s-.1-.016-.147-.016-.1.012-.15.012-.1 0-.151 0-.1-.008-.151-.008-.1 0-.151 0c-.0755-.002-.1511.002-.226.012-.0333.002-.0667.002-.1 0-.0407.005-.0799.019-.115.04-.034.023-.0623.053-.083.088-.0205.03-.0307.065-.0293.101.0015.036.0145.071.0373.099.0246.033.0555.06.091.08.0327.025.0707.041.111.048.032 0 .06 0 .087.008l.135.016h.135c.044 0 .091-.008.135-.008s.092.008.135.008h.131c.0653-.002.1305.005.194.02.0711.022.1308.071.167.136.0206.066.0163.137-.012.2-.0109.027-.0243.052-.04.076v.008c-.0358.06-.0756.117-.119.171-.035.044-.071.092-.111.141s-.087.084-.127.132-.071.1-.111.14-.063.068-.1.1-.051.076-.084.112-.059.073-.086.109l-.1.107c-.028.036-.055.072-.087.109s-.067.067-.1.1-.056.076-.088.112-.075.1-.11.14-.068.1-.1.148c-.0284.04-.0535.083-.075.127-.0153.047-.026.096-.032.145-.006.048-.006.096 0 .144-.0012.046.007.092.024.135.0187.043.0487.081.087.109.0387.024.0819.041.127.048.052.011.1.007.147.015s.1.013.147.013h.008.162.167.167.2.2c.056 0 .115-.008.171-.008s.111.008.166.008h.171c.0439.001.0877-.002.131-.009.044 0 .087-.016.131-.023.0558-.006.109-.026.154-.06.0463-.045.0736-.106.076-.17s-.0202-.127-.063-.175z"/><path d="m18.1053 115.838c-.008-.051-.011-.1-.023-.156s-.02-.1-.036-.151c-.0161-.051-.0358-.101-.059-.149-.02-.047-.044-.1-.068-.143s-.052-.084-.079-.124c-.0257-.042-.0538-.082-.084-.12-.0313-.038-.0647-.074-.1-.108-.036-.032-.067-.068-.107-.1-.0352-.033-.0722-.064-.111-.092-.0424-.026-.0861-.05-.131-.071-.0425-.023-.0863-.043-.131-.061-.048-.019-.087-.048-.135-.063-.0469-.015-.0947-.028-.143-.037-.047-.011-.1-.02-.146-.028s-.1-.015-.155-.019-.1-.025-.151-.029-.1 0-.151 0-.1.012-.155.021c-.0502 0-.1003.004-.15.011-.0508.007-.1012.017-.151.029-.05.013-.0992.029-.147.048-.0976.031-.191.074-.278.128-.043.027-.087.059-.127.087s-.09.06-.13.092c-.0406.036-.079.075-.115.116-.0369.04-.0703.083-.1.128-.0364.039-.0698.08-.1.124-.0247.046-.0457.094-.063.144-.0241.048-.0438.099-.059.151-.0201.05-.0361.101-.048.153-.0173.051-.032.103-.044.156-.008.044-.012.088-.016.136s0 .091 0 .139v.136c0 .048.008.092.012.141s.008.1.016.151.024.1.036.152.028.1.043.152.036.1.056.144.048.092.075.136c.0261.046.0551.09.087.132.0329.041.069.08.108.116.0312.042.0646.082.1.12.0402.034.0826.064.127.092l.131.084c.048.023.087.06.135.08s.1.035.146.052.1.027.151.04c.0444.013.0895.023.135.031.0446.008.0897.014.135.017l.135.011h.135c.071 0 .142 0 .214-.007.055 0 .107-.008.158-.016s.108-.028.155-.04.108-.021.159-.036.1-.036.151-.056.1-.049.143-.076.087-.065.127-.1c.0441-.031.0865-.064.127-.1.035-.029.063-.068.1-.1.0311-.034.0602-.07.087-.108.0274-.036.0527-.073.076-.112.0266-.037.0491-.078.067-.12.023-.044.051-.084.071-.128s.028-.092.044-.136.031-.092.04-.14.023-.1.032-.144.007-.1.007-.143c.004-.05.004-.099 0-.149v-.048c0-.032-.008-.064-.008-.091-.004-.05-.0107-.1-.02-.149zm-.583.44c-.0082.048-.0199.095-.035.141-.012.047-.02.091-.036.139s-.036.109-.06.156c-.0254.05-.0545.098-.087.144-.0323.045-.0681.088-.107.128-.0384.039-.0795.075-.123.108-.0446.033-.091.064-.139.092-.0486.026-.0991.049-.151.068-.0512.02-.1041.036-.158.047-.0523.011-.1055.018-.159.021-.0541.007-.1086.009-.163.008-.0546-.004-.1088-.012-.162-.025-.0528-.01-.1047-.025-.155-.044-.0519-.014-.1025-.032-.151-.055-.0443-.017-.0868-.039-.127-.064-.0361-.03-.0696-.064-.1-.1-.037-.029-.0706-.063-.1-.1-.0346-.033-.0639-.07-.087-.112-.0305-.044-.0573-.091-.08-.14-.0209-.05-.0383-.102-.052-.155-.0187-.05-.0344-.101-.047-.153-.015-.052-.0257-.106-.032-.16 0-.052 0-.107 0-.159s.012-.108.02-.16.02-.109.036-.16c.0176-.051.0386-.1.063-.148.02-.049.044-.1.068-.144.0246-.05.0552-.097.091-.14.0343-.041.0728-.079.115-.112.0406-.035.083-.069.127-.1.048-.028.091-.06.143-.084.0522-.016.1053-.03.159-.04.047-.012.1-.036.15-.048.0525-.01.1056-.015.159-.016h.02v.012c.051 0 .1 0 .147.008s.1.012.147.024c.047.011.0932.026.138.044.0467.014.0919.033.135.056.0425.024.0835.051.123.08.0414.03.0799.063.115.1.0336.031.0654.065.095.1.0274.038.0528.077.076.117.024.04.048.084.067.124l.048.135c.0171.043.0315.087.043.132.012.048.008.1.016.145s.02.1.02.143c.0008.049-.0025.098-.01.147z"/><path d="m21.4003 114.523c-.0547.002-.1086.015-.159.036-.0493.02-.0939.05-.131.088-.0353.037-.0687.076-.1.116-.024.036-.036.076-.059.113s-.056.063-.076.1c-.012.02-.008.028-.02.048-.03.04-.0577.081-.083.124-.024.044-.055.084-.079.124-.0257.043-.0537.084-.084.124-.0304.046-.0695.085-.115.115-.0396.032-.0883.05-.139.053-.0495-.007-.0959-.028-.134-.06-.0621-.04-.1149-.094-.155-.156l-.1-.168c-.056-.1-.064-.088-.124-.184-.023-.04-.039-.084-.063-.128s-.055-.08-.079-.12c-.0254-.037-.055-.07-.088-.1-.0314-.034-.0671-.063-.106-.088-.0424-.018-.0862-.033-.131-.044-.0449-.009-.0911-.009-.136 0-.0428.013-.0812.037-.1112.07s-.0503.074-.0588.118c.0001.044.0096.088.028.128.0152.054.0377.105.067.152.024.036.056.072.084.112s.043.084.067.123.047.081.075.117.068.088.1.135.056.1.088.141.063.092.1.14l.06.1c.027.036.051.076.075.113s.04.08.063.12c.0224.039.0424.079.06.12.0261.05.0485.102.067.155.019.055.035.111.048.168.0079.058.0119.117.012.176v.168c0 .08-.008.08-.008.16h.012c0 .06-.008.116-.008.176-.004.046-.004.093 0 .139 0 .048.012.1.016.141l.012.008c.0097.063.0403.121.087.164.045.043.1048.067.167.067h.016c.0616.004.1224-.016.17-.055.0447-.045.0741-.103.084-.165.0146-.06.0223-.121.023-.183.0021-.039.0021-.077 0-.116v-.12c0-.052 0-.108 0-.16s0-.108 0-.16 0-.116.008-.168.016-.112.028-.164c.0139-.053.0312-.105.052-.156.0201-.05.0453-.099.075-.144.028-.047.055-.091.083-.135s.056-.088.083-.136.052-.088.08-.132l.087-.137c.032-.044.06-.088.087-.131s.06-.084.091-.128.052-.077.08-.116.04-.084.064-.124c.015-.02.019-.016.035-.036.024-.036.04-.072.06-.108s.039-.075.059-.112c.0184-.034.028-.073.028-.112s-.0096-.078-.028-.112c-.0246-.031-.056-.055-.0918-.072-.0358-.016-.0749-.024-.1142-.022z"/><path d="m26.0773 115.838c-.008-.051-.012-.1-.024-.156s-.02-.1-.035-.151c-.016-.051-.0361-.101-.06-.149-.02-.047-.044-.1-.067-.143-.0243-.043-.051-.084-.08-.124-.028-.04-.052-.084-.083-.12s-.068-.072-.1-.108-.068-.068-.107-.1c-.0697-.069-.1518-.124-.242-.163-.0426-.023-.0864-.043-.131-.061-.048-.019-.088-.048-.135-.063-.0469-.015-.0947-.028-.143-.037-.047-.011-.1-.02-.147-.028s-.1-.015-.154-.019-.1-.025-.151-.029-.1 0-.151 0-.1.012-.155.021c-.0502 0-.1003.004-.15.011-.0509.007-.1013.016-.151.029-.05.013-.0992.029-.147.048-.0487.015-.0965.034-.143.055-.0465.022-.0916.046-.135.073-.043.027-.087.059-.127.087s-.091.06-.131.092-.079.076-.115.116c-.0362.04-.0697.083-.1.128-.0364.039-.0698.08-.1.124-.0254.046-.0468.094-.064.144-.0232.049-.0429.099-.059.151-.0201.05-.0361.101-.048.153-.011.051-.035.1-.043.156s-.012.088-.016.136 0 .091 0 .139v.136c0 .048.008.092.012.141s.008.1.016.151.024.1.035.152.028.1.044.152.036.1.055.144c.0229.047.0483.092.076.136.0257.046.0548.09.087.132.0329.041.069.08.108.116.0309.042.0643.082.1.12.0398.034.0819.064.126.092l.131.084c.048.023.088.06.135.08s.1.035.147.052.1.027.151.04c.0444.013.0895.023.135.031.0446.008.0897.014.135.017l.134.011h.136c.071 0 .142 0 .213-.007s.108-.008.159-.016.108-.028.155-.04.107-.021.159-.036.1-.036.15-.056.1-.049.144-.076.086-.065.126-.1c.0443-.031.0867-.064.127-.1.0354-.031.0688-.065.1-.1.0315-.034.0609-.07.088-.108.027-.037.051-.072.075-.112.0273-.037.0501-.077.068-.12.023-.044.051-.084.071-.128s.028-.092.043-.136c.0158-.046.0291-.093.04-.14.012-.048.024-.1.032-.144s.008-.1.008-.143c.004-.05.004-.099 0-.149v-.048c0-.032-.008-.064-.008-.091-.008-.044-.008-.097-.019-.149zm-.583.44c-.0081.048-.0202.095-.036.141-.012.047-.02.091-.035.139s-.036.109-.06.156c-.0261.05-.0552.098-.087.144-.0641.09-.1417.17-.23.236-.044.032-.092.064-.14.092-.0483.026-.0984.049-.15.068-.1015.039-.2085.062-.317.068-.0541.007-.1086.009-.163.008-.0549-.004-.1094-.012-.163-.025-.0525-.01-.104-.025-.154-.044-.052-.014-.1025-.032-.151-.055-.0904-.03-.1702-.086-.23-.16-.0372-.029-.0708-.063-.1-.1-.034-.033-.0632-.071-.087-.112-.0298-.045-.0562-.091-.079-.14-.0214-.05-.0388-.102-.052-.155-.0196-.05-.0353-.101-.047-.153-.015-.052-.0257-.106-.032-.16 0-.052 0-.107 0-.159s.012-.108.02-.16.019-.109.035-.16c.0179-.051.0393-.1.064-.148.02-.049.043-.1.067-.144.025-.05.0559-.097.092-.14.0339-.041.0721-.079.114-.112.04-.036.084-.072.127-.1s.092-.06.143-.084c.0522-.016.1053-.03.159-.04.048-.012.1-.036.151-.048.0525-.01.1056-.015.159-.016h.019v.012c.052 0 .1 0 .147.008s.1.012.147.024c.0474.011.0939.026.139.044.0466.014.0918.033.135.056.0425.024.0835.051.123.08.041.03.0795.064.115.1.0351.032.0685.065.1.1.0271.038.0521.077.075.117.024.04.048.084.068.124l.048.135c.011.044.035.084.043.132s.008.1.016.145.02.1.02.143c.0006.048-.0027.096-.01.143z"/><path d="m30.9513 114.563c-.0311-.019-.0648-.034-.1-.044-.042-.007-.0845-.009-.127-.008-.0406-.009-.0817-.016-.123-.02-.06 0-.119.013-.175.013s-.119 0-.174 0c-.08 0-.08-.009-.155-.009h-.147c-.06 0-.119.013-.178.013h-.179c-.0465-.001-.0929.001-.139.007-.051 0-.1 0-.143.008-.0462.01-.0904.028-.131.052-.0381.025-.0694.06-.091.1-.02.041-.0332.086-.039.131-.01.066-.0156.133-.017.2v.164.16c0 .06-.015.108-.015.16v.164.16.159.16c0 .051.011.109.011.164s-.007.108-.007.161c0 .075.007.075.007.147 0 .052-.011.105-.011.156s.011.1.011.16-.007.1-.007.156v.156.155c-.0034.069.0089.137.036.2.0231.046.0575.086.1.116.0412.031.0914.048.143.048.0511.001.1011-.015.143-.044.0435-.027.0783-.066.1-.113.0181-.028.0304-.059.036-.091.008-.048.016-.088.02-.124.004-.041.004-.083 0-.124 0-.068.012-.14.012-.208 0-.052 0-.052 0-.1-.003-.059.0024-.118.016-.176.0132-.047.0345-.092.063-.132.026-.042.06-.079.1-.108.0424-.028.0894-.048.139-.06.0582-.006.1168-.006.175 0 .063 0 .063-.008.131-.008.0445-.005.0892-.008.134-.009h.131c.052 0 .1 0 .155-.008s.1-.008.151-.019c.0456-.015.0866-.042.119-.077.0285-.038.044-.084.044-.131.0053-.045-.0016-.091-.02-.132-.0214-.04-.0527-.075-.091-.1-.0452-.024-.0956-.038-.147-.039-.048-.005-.092-.021-.135-.021s-.1 0-.143 0h-.143c-.044 0-.044 0-.091 0-.0492 0-.0983-.004-.147-.011-.051-.008-.1-.025-.146-.036-.0523-.011-.1022-.031-.147-.06-.0441-.033-.0786-.077-.1-.128-.0152-.047-.0242-.095-.027-.144-.0087-.047-.0113-.096-.008-.144.0074-.049.0219-.096.043-.14.0166-.055.0497-.104.095-.14.0561-.041.1219-.067.191-.076.052-.008.107-.016.166-.02.0553-.008.1111-.012.167-.012.056 0 .115.008.171.008h.174.108c.0667-.001.1326-.014.194-.04.0441-.015.0827-.043.111-.08.0323-.037.0507-.083.052-.132.0039-.047-.0089-.094-.036-.132-.0305-.034-.068-.06-.11-.078z"/><path d="m34.6043 117.773h.016c.0548.004.1097-.007.159-.031.0256-.012.0483-.029.0668-.051.0184-.021.0321-.046.0402-.073.0048-.028.0033-.056-.0043-.083s-.0212-.052-.0397-.073c-.0285-.033-.0623-.062-.1-.084-.033-.026-.0707-.045-.111-.056-.056-.021-.111-.04-.163-.064-.0519-.026-.102-.055-.15-.088-.0556-.027-.1077-.06-.155-.1-.0492-.038-.0956-.079-.139-.124l-.087-.108c-.028-.04-.048-.08-.072-.12s-.04-.084-.059-.124c-.0162-.023-.0283-.049-.036-.076-.0007-.035.0055-.07.0184-.103s.0321-.063.0566-.088c.0441-.015.0867-.034.127-.057.0453-.019.0891-.041.131-.067.042-.029.0806-.062.115-.1.0379-.034.0714-.073.1-.115.0295-.041.0534-.085.071-.132.0175-.047.0309-.096.04-.145.0155-.057.0272-.116.035-.175.0022-.033.0022-.067 0-.1.0019-.033.0019-.067 0-.1-.005-.06-.0144-.12-.028-.179-.01-.057-.0285-.112-.055-.164-.0236-.054-.0527-.105-.087-.152-.0387-.044-.0812-.084-.127-.12-.0475-.041-.0995-.077-.155-.107-.0566-.031-.1167-.056-.179-.073-.0477-.017-.0965-.03-.146-.04-.052-.007-.1 0-.147-.007-.0496-.011-.1002-.018-.151-.021h-.012c-.051 0-.1 0-.151 0-.0499.004-.1001.004-.15 0-.056 0-.107-.02-.159-.023h-.159c-.051 0-.107.007-.158.007s-.036-.007-.076-.007c-.0496 0-.099.007-.147.019-.011 0-.008.012-.019.017-.0462.006-.0908.021-.131.044-.0419.024-.0765.058-.1.1-.0225.041-.0387.086-.048.132-.0103.045-.0183.09-.024.136 0 .044-.016.092-.016.136v.016.152.148.012c0 .052.012.1.012.152v.148.156.143.012.137.151c0 .072.008.072.008.145v.319.148c0 .048-.016.108-.016.16v.175c0 .057.012.109.016.161.0035.053.0116.105.024.156.0151.058.0484.109.095.147.0474.038.1061.06.167.061v-.017c.057.003.1132-.014.159-.048.0466-.032.0817-.078.1-.131.0075-.021.0138-.042.019-.064v-.013-.011c.0083-.053.0123-.106.012-.16 0-.056 0-.112 0-.164 0-.032 0-.064 0-.092v-.016s0 0 0-.012c.0018-.043.0058-.086.012-.128-.0008-.047.0045-.094.016-.14.0061-.052.0225-.102.048-.148.0273-.045.0655-.082.111-.108.0438-.027.0918-.048.142-.06h.009c.0676.004.1324.028.186.069.0535.042.0933.099.114.163h.008c.012.036.02.072.036.108s.051.092.075.14.044.1.071.14c.0284.045.0591.089.092.131.035.04.072.077.111.113.0333.039.069.077.107.112.04.036.079.071.119.1s.087.059.131.084c.0449.025.0913.048.139.068.046.025.0938.046.143.063.0476.016.0964.028.146.037.0498.014.1012.022.153.024zm-.988-1.963c-.0305.026-.0641.048-.1.065-.051.015-.1.028-.15.04-.0509.012-.1028.02-.155.023-.0528.007-.1062.007-.159 0-.0528-.006-.1048-.018-.155-.035-.0493-.02-.0939-.051-.131-.089-.0357-.037-.0614-.082-.075-.132-.0145-.045-.0252-.092-.032-.139-.002-.023-.002-.046 0-.069v-.059c.0002-.047.0042-.094.012-.14.0156-.054.041-.104.075-.148.031-.048.0736-.088.124-.116.0493-.026.1027-.044.158-.052.028 0 .056 0 .088-.008h.043c.0502-.004.1007-.004.151 0 .0487.007.0966.019.143.036.0456.016.0892.038.13.064.04.024.0764.054.108.088.0371.029.0706.063.1.1.0158.045.0252.092.028.14v.048c.0025.106-.033.209-.1.291-.0312.034-.0657.065-.103.092z"/><path d="m38.8443 116.978c.024-.044.052-.084.072-.128s.028-.092.043-.136.032-.092.04-.14.024-.1.032-.144.008-.1.008-.143c.004-.05.004-.099 0-.149v-.048c0-.032-.008-.064-.008-.091 0-.056 0-.109-.012-.161s-.012-.1-.024-.156-.02-.1-.036-.151c-.0157-.051-.0354-.101-.059-.149-.02-.047-.044-.1-.068-.143-.0236-.043-.05-.084-.079-.124-.028-.04-.052-.084-.083-.12s-.068-.072-.1-.108-.068-.068-.107-.1c-.0699-.069-.1523-.125-.243-.163-.0422-.023-.0856-.043-.13-.061-.048-.019-.088-.048-.135-.063-.0469-.015-.0947-.028-.143-.037-.048-.011-.1-.02-.147-.028s-.1-.015-.155-.019-.1-.025-.15-.029-.1 0-.151 0-.1.012-.155.021c-.0502 0-.1003.004-.15.011-.0508.007-.1013.016-.151.029-.05.013-.0991.029-.147.048-.0487.015-.0965.034-.143.055-.0465.022-.0915.046-.135.073-.044.027-.087.059-.127.087s-.091.06-.131.092c-.0403.037-.0787.075-.115.116-.0362.04-.0697.083-.1.128-.0367.039-.0701.08-.1.124-.0255.046-.0466.094-.063.144-.0239.049-.044.099-.06.151-.02.05-.0361.101-.048.153-.017.051-.0313.103-.043.156-.0085.045-.0139.09-.016.136v.139.136c0 .048.008.092.011.141s.009.1.017.151.024.1.035.152.028.1.044.152.035.1.055.144c.0229.047.0483.092.076.136.0254.046.0545.09.087.132.0325.041.0683.08.107.116.036.04.064.084.1.12.0404.033.0828.064.127.092l.131.084c.048.023.088.06.135.08s.1.035.147.052.1.027.151.04c.0444.013.0895.023.135.031.0443.008.089.014.134.017l.135.011h.135c.072 0 .143 0 .214-.007s.108-.008.159-.016.107-.028.155-.04.107-.021.158-.036.1-.036.151-.056.1-.049.143-.076c.0441-.031.0865-.064.127-.1.0443-.031.0867-.064.127-.1.0351-.031.0685-.065.1-.1.0315-.034.0605-.07.087-.108.0274-.036.0527-.073.076-.112.0238-.034.0439-.07.06-.108zm-.4-.7c-.0081.048-.0202.095-.036.141-.012.047-.02.091-.036.139s-.035.109-.059.156c-.0261.05-.0555.098-.088.144-.032.046-.0678.088-.107.128-.038.039-.0791.075-.123.108-.0444.033-.0905.064-.138.092-.0487.026-.0992.049-.151.068-.0515.02-.1047.036-.159.047-.052.011-.1048.018-.158.021-.0541.007-.1086.009-.163.008-.0549-.004-.1095-.012-.163-.025-.0524-.01-.104-.025-.154-.044-.052-.014-.1025-.032-.151-.055-.0904-.03-.1702-.086-.23-.16-.0372-.029-.0708-.063-.1-.1-.0343-.033-.0636-.071-.087-.112-.0298-.045-.0562-.091-.079-.14-.0214-.05-.0387-.102-.052-.155-.0196-.05-.0353-.101-.047-.153-.015-.052-.0257-.106-.032-.16 0-.052 0-.107 0-.159s.012-.108.02-.16.019-.109.035-.16c.0179-.051.0393-.1.064-.148.02-.049.043-.1.067-.144.025-.05.0559-.097.092-.14.034-.042.0726-.079.115-.112.0404-.036.0828-.069.127-.1.047-.028.091-.06.142-.084.0522-.016.1053-.03.159-.04.047-.012.1-.036.151-.048.0525-.01.1057-.015.159-.016h.019v.012c.052 0 .1 0 .147.008s.1.012.147.024c.0474.011.0938.026.139.044.0463.015.0911.033.134.056.0428.024.0842.051.124.08.041.03.0795.064.115.1.035.032.063.068.1.1.0271.038.0521.077.075.117.024.04.048.084.068.124l.047.135c.0171.043.0317.087.044.132.012.048.008.1.016.145s.02.1.02.143c-.0017.048-.0074.096-.017.143z"/><path d="m42.3653 115.095c.016-.02.02-.016.036-.036.024-.036.039-.072.059-.108s.04-.075.06-.112c.0181-.035.0276-.073.0276-.112s-.0095-.077-.0276-.112c-.025-.03-.0567-.054-.0926-.07-.036-.016-.0751-.024-.1144-.022-.0547.003-.1085.015-.159.036-.0491.02-.0935.05-.13.088-.0355.037-.0689.075-.1.116-.024.036-.036.076-.06.113-.0268.032-.0519.065-.075.1-.012.02-.009.028-.02.048-.0303.04-.058.081-.083.124-.024.044-.056.084-.08.124s-.052.084-.083.124c-.031.045-.07.084-.115.115-.0397.032-.0883.05-.139.053-.0498-.007-.0965-.028-.135-.06-.0619-.041-.1147-.094-.155-.156l-.1-.168c-.056-.1-.063-.088-.123-.184-.023-.04-.04-.084-.064-.128s-.055-.08-.079-.12c-.0251-.037-.0543-.07-.087-.1-.0318-.034-.0677-.063-.107-.088-.0423-.018-.0862-.033-.131-.044-.0446-.009-.0905-.009-.135 0-.0433.011-.0822.035-.111.069-.0326.032-.0535.074-.059.119-.0003.044.0089.088.027.128.0155.054.0384.105.068.152.024.036.055.072.083.112s.044.084.068.123.047.081.075.117.067.088.1.135.056.1.087.141.064.092.1.14l.059.1c.028.036.051.076.075.113s.04.08.064.12c.022.039.0418.079.059.12.026.05.0487.102.068.155.02.061.035.112.048.168.0071.058.0108.117.011.176v.168c0 .08-.007.08-.007.16h.011c0 .06-.008.116-.008.176-.0035.046-.0035.093 0 .139 0 .048.013.1.016.141l.012.008c.0105.063.0414.121.088.164.0446.043.1041.067.166.067h.016c.0619.004.123-.016.171-.055.0443-.045.0734-.103.083-.165.0154-.06.0234-.121.024-.183 0-.04 0-.08 0-.116v-.12c0-.052 0-.108 0-.16s0-.108 0-.16 0-.116.007-.168.017-.112.028-.164c.0139-.053.0312-.105.052-.156.0202-.05.0453-.099.075-.144.028-.047.056-.091.084-.135s.055-.088.083-.136.051-.088.079-.132l.088-.137c.031-.044.059-.088.087-.131s.059-.084.091-.128.052-.077.08-.116.04-.086.064-.126z"/><path d="m46.4943 117.418c.0354-.031.0688-.065.1-.1.0315-.034.0609-.07.088-.108.027-.037.051-.072.075-.112.0273-.037.0501-.077.068-.12.023-.044.051-.084.071-.128s.028-.092.043-.136c.0157-.046.0291-.093.04-.14.012-.048.024-.1.032-.144s.008-.1.008-.143c.004-.05.004-.099 0-.149v-.048c0-.032-.008-.064-.008-.091 0-.056 0-.109-.012-.161s-.012-.1-.024-.156-.02-.1-.035-.151c-.016-.051-.0361-.101-.06-.149-.02-.047-.044-.1-.067-.143-.0243-.043-.051-.084-.08-.124-.028-.04-.052-.084-.083-.12s-.068-.072-.1-.108-.068-.068-.107-.1c-.0355-.033-.0729-.064-.112-.092-.042-.026-.0854-.05-.13-.071-.0426-.023-.0863-.043-.131-.061-.048-.019-.088-.048-.135-.063-.0469-.015-.0947-.028-.143-.037-.048-.011-.1-.02-.147-.028s-.1-.015-.154-.019-.1-.025-.151-.029-.1 0-.151 0-.1.012-.155.021c-.0502 0-.1003.004-.15.011-.0509.007-.1013.016-.151.029-.05.013-.0992.029-.147.048-.0487.015-.0965.034-.143.055-.0465.022-.0916.046-.135.073-.044.027-.087.059-.127.087s-.091.06-.131.092-.079.076-.115.116c-.0363.04-.0697.083-.1.128-.0367.039-.0701.08-.1.124-.0254.046-.0468.094-.064.144-.0232.049-.0429.099-.059.151-.0201.05-.0361.101-.048.153-.011.051-.035.1-.043.156s-.012.088-.016.136 0 .091 0 .139v.136c0 .048.008.092.012.141s.008.1.016.151.024.1.035.152.028.1.044.152.036.1.055.144c.0229.047.0483.092.076.136.0253.046.0544.09.087.132.0328.041.0686.08.107.116.0312.042.0646.082.1.12.0398.034.0819.064.126.092l.131.084c.048.023.088.06.135.08s.1.035.147.052.1.027.151.04c.0444.013.0895.023.135.031.0443.008.089.014.134.017l.135.011h.135c.072 0 .143 0 .214-.007s.108-.008.159-.016.107-.028.155-.04.107-.021.159-.036.1-.036.15-.056.1-.049.143-.076c.0441-.031.0865-.064.127-.1.0419-.027.0823-.056.121-.088zm-.21-.7c-.0261.05-.0552.098-.087.144-.0641.09-.1417.17-.23.236-.044.032-.092.064-.14.092-.0483.026-.0984.049-.15.068-.0516.02-.1048.036-.159.047-.052.011-.1049.018-.158.021-.0541.007-.1086.009-.163.008-.0549-.004-.1095-.012-.163-.025-.0525-.01-.104-.025-.154-.044-.052-.014-.1025-.032-.151-.055-.0904-.03-.1702-.086-.23-.16-.0372-.029-.0708-.063-.1-.1-.034-.033-.0633-.071-.087-.112-.0298-.045-.0562-.091-.079-.14-.0214-.05-.0388-.102-.052-.155-.0196-.05-.0353-.101-.047-.153-.015-.052-.0257-.106-.032-.16 0-.052 0-.107 0-.159s.012-.108.02-.16.019-.109.035-.16c.0179-.051.0393-.1.064-.148.0199-.049.0422-.097.067-.144.025-.05.0559-.097.092-.14.0339-.041.0721-.079.114-.112.04-.036.084-.072.127-.1s.092-.06.143-.084c.0522-.016.1053-.03.159-.04.048-.012.1-.036.151-.048.0525-.01.1056-.015.159-.016h.019v.012c.052 0 .1 0 .147.008s.1.012.147.024c.0474.011.0939.026.139.044.0466.014.0918.033.135.056.0425.024.0835.051.123.08.041.03.0795.064.115.1.0351.032.0685.065.1.1.0271.038.0521.077.075.117.024.04.048.084.068.124l.048.135c.011.044.035.084.043.132s.008.1.016.145.02.1.02.143c.0013.048-.0014.096-.008.144-.0081.048-.0202.095-.036.141-.012.047-.02.091-.035.139s-.041.104-.065.151z"/><path d="m71.9483 118.284c.0533-.031.105-.064.155-.1.0464-.039.0905-.08.132-.124.0417-.044.0811-.089.118-.137.033-.053.075-.1.1-.153s.043-.124.067-.185.037-.124.051-.191.02-.129.024-.19 0-.134 0-.2-.028-.124-.043-.191c-.0128-.063-.0298-.125-.051-.185-.0251-.083-.0618-.162-.109-.234-.0351-.048-.0729-.093-.113-.137-.04-.045-.0824-.088-.127-.129-.0485-.033-.0989-.064-.151-.091-.0511-.03-.1047-.055-.16-.076-.0554-.019-.1123-.033-.17-.042-.056-.016-.1127-.029-.17-.039-.061-.009-.118 0-.174-.014-.0242-.002-.048-.007-.071-.015-.0698-.014-.1358-.043-.193-.085-.0437-.024-.081-.059-.109-.1-.0291-.043-.0482-.092-.056-.143.0024-.034.0071-.067.014-.1 0-.019-.009-.019-.009-.039-.0008-.075.028-.146.08-.2.0355-.028.0745-.052.116-.071l-.1-.081.073-.077.136.11c.0508-.015.1031-.025.156-.029.085 0 .175-.009.26-.014h.188.184c.0337.004.0679.001.1-.01.0639-.013.1229-.044.17-.089.0237-.021.0427-.047.0556-.075.0129-.029.0195-.06.0194-.092-.0021-.032-.0108-.062-.0254-.09-.0147-.028-.035-.053-.0596-.073-.0477-.042-.1062-.07-.169-.081-.057 0-.109.005-.161 0-.019 0-.019 0-.038 0-.047 0-.1 0-.151 0s-.108-.013-.155-.013-.108.013-.161.009l-.2-.014c-.071-.005-.137-.005-.2-.005s-.142-.015-.2-.015c-.0473.004-.0944.011-.141.02-.043 0-.09.01-.137.018-.0538.009-.1052.029-.151.058-.0456.03-.0828.071-.108.119-.0308.044-.0519.095-.062.148 0 .018.005.033 0 .051s-.014.02-.014.03c-.0125.066-.0202.133-.023.2-.005.07-.005.14 0 .21v.2.267.142c0 .01.009.01.009.019-.0007.038.001.076.005.114.0052.056.0193.111.042.162.0273.048.0661.089.113.119.0504.04.1104.066.174.076s.1287.004.189-.019c.0666-.005.1334-.005.2 0 .0643-.004.1287-.004.193 0 .0641.013.1272.03.189.052.063.012.1244.032.183.058.0537.022.1044.05.151.085.0428.036.0823.076.118.119.0387.044.0723.092.1.143.0237.05.0424.103.056.157.0127.071.0161.143.01.215.0006.073-.0105.145-.033.214-.0266.065-.063.126-.108.18-.0431.059-.0939.112-.151.158-.058.046-.1268.077-.2.09-.0592.009-.1191.014-.179.014-.0601 0-.1198-.008-.178-.023-.0575-.017-.1119-.043-.161-.077-.0506-.03-.0993-.064-.146-.1-.0641-.048-.134-.088-.208-.119-.0459-.012-.0935-.017-.141-.015-.0479-.003-.0959.004-.141.02-.0553.019-.1025.056-.1335.105s-.0439.108-.0365.166c.008.089.0482.172.113.233.0393.052.0835.1.132.143.0533.041.1118.075.174.1.0559.032.1144.059.175.081.0607.022.1238.036.188.043l.146.015c.048 0 .1-.005.147-.005.07 0 .137-.015.2-.02s.136 0 .2-.013.128-.053.194-.077.125-.039.178-.066z"/><path d="m75.0313 116.964c.047.048.094.1.137.153s.094.1.136.147.085.11.132.158.09.1.137.152.066.091.1.133.071.086.108.129.071.09.114.133.084.08.127.123.085.081.132.124c.0472.048.1032.087.165.115.0636.026.1313.04.2.043.0568-.004.1133-.012.169-.024.0348-.004.0682-.016.0976-.035.0295-.02.0542-.045.0724-.075.0147-.034.0216-.071.02-.108-.0015-.037-.0115-.073-.029-.106-.023-.049-.0534-.094-.09-.133l-.1-.134c-.038-.043-.08-.076-.113-.119s-.062-.091-.1-.133c-.0402-.037-.0779-.077-.113-.119l-.114-.129-.113-.132c-.052-.058-.108-.111-.16-.172s-.123-.133-.184-.2c-.05-.055-.0955-.114-.136-.177 0 0 0 0 0-.015-.0349-.042-.0608-.09-.076-.142-.0138-.053-.0202-.107-.019-.162.0037-.02.0094-.039.017-.057l-.085.123c-.043-.064-.119-.125-.121-.192s.07-.137.122-.228l.131.153c.0254-.057.0614-.108.106-.151.056-.063.108-.134.17-.2.033-.038.08-.072.117-.11s.071-.086.1-.124.076-.076.118-.114.076-.066.108-.1.062-.077.1-.115.08-.081.117-.124c.0329-.047.0629-.096.09-.147.0227-.034.0367-.073.0407-.114s-.0021-.082-.0177-.12c-.0201-.035-.0492-.065-.0842-.086-.0351-.021-.075-.032-.1158-.033-.0574-.003-.1149.003-.17.02-.0554.01-.1084.031-.156.061-.0501.029-.0973.062-.141.1-.043.042-.085.09-.128.138s-.094.081-.136.124-.085.1-.128.137l-.122.143c-.038.043-.085.076-.123.119l-.122.124c-.038.038-.071.091-.114.129s-.089.071-.127.114c-.0575.06-.1285.106-.207.133-.0518.02-.1092.02-.161 0-.0511-.018-.0943-.053-.122-.1-.0248-.047-.0395-.1-.043-.153l-.009-.033c-.009-.062-.024-.119-.033-.18-.005-.061-.005-.121 0-.182 0-.047-.014-.1-.014-.148s0-.094 0-.142c0 0 0 0 0-.01-.0009-.078-.0234-.153-.065-.219-.0194-.039-.0476-.072-.0823-.098-.0348-.025-.0751-.042-.1177-.049-.0425-.012-.0871-.014-.1304-.005-.0434.008-.0843.026-.1196.052-.0367.029-.0672.065-.0899.106-.0226.041-.037.086-.0421.132.0027.014.0027.029 0 .043-.005.053-.005.109-.009.162s-.005.109-.005.162v.181.176.18c0 .061-.014.119-.014.177v.176.185.182c0 .091.009.085.009.171s-.014.086-.009.176v.181.186.371c0 .058-.009.119-.009.181s0 .124.009.181.019.123.033.181c.0153.076.055.144.113.195.0592.046.1326.07.2075.067s.1465-.031.2025-.081c.0527-.049.0878-.115.1-.186.0114-.058.0161-.117.014-.176 0-.091-.009-.181-.009-.271v-.249c0-.077.009-.148.014-.214.0096-.07.0253-.138.047-.205.008-.04.0249-.077.0495-.109.0246-.033.0562-.059.0925-.077.0384-.011.0788-.012.118-.005.0392.008.0761.024.108.048.0848.031.1624.08.228.142z"/><path d="m84.5633 116.922h-1.317v1.317h1.317z"/></g></g></svg>