<?xml version="1.0" encoding="UTF-8"?>
<svg width="1920px" height="1080px" viewBox="0 0 1920 1080" version="1.1" xmlns="http://www.w3.org/2000/svg" xmlns:xlink="http://www.w3.org/1999/xlink">
    <!-- Generator: Sketch 47.1 (45422) - http://www.bohemiancoding.com/sketch -->
    <title>131-Results-Background</title>
    <desc>Created with Sketch.</desc>
    <defs></defs>
    <g id="Page-1" stroke="none" stroke-width="1" fill="none" fill-rule="evenodd">
        <g id="Background">
            <polygon id="Rectangle" fill="#000000" points="0 0 1333.62202 0 790.326087 1080 0 1080"></polygon>
            <polygon id="Path-2" fill="#DA2C83" points="1333.62 -7.10542736e-15 1920 -7.10542736e-15 1920 1080 790.634813 1080"></polygon>
        </g>
        <g id="131logo" transform="translate(81.000000, 407.000000)" fill-rule="nonzero">
            <polygon id="Fill-3" fill="#FFFFFF" points="335.454834 9 374.72104 106.973051 414.552137 9 438 9 374.262154 161 312 9"></polygon>
            <polygon id="Fill-5" fill="#FFFFFF" points="528 28.7130716 472.050973 28.7130716 472.050973 62.1091215 526.36542 62.1091215 526.36542 81.8305507 472.050973 81.8305507 472.050973 128.288321 528 128.288321 528 148 451 148 451 9 528 9"></polygon>
            <polygon id="Fill-7" fill="#FFFFFF" points="555 148.528466 555 0 656.078928 106.112267 656.078928 9.46654544 677 9.46654544 677 157 575.926625 51.155299 575.926625 148.528466"></polygon>
            <polygon id="Fill-9" fill="#FFFFFF" points="748.061308 28.7130716 748.061308 148 727.036412 148 727.036412 28.7130716 695 28.7130716 695 9 780 9 780 28.7130716"></polygon>
            <polygon id="Fill-11" fill="#FFFFFF" points="24.0271492 28.001465 0 28.001465 11.518283 8 45 8 45 149 24.0271492 149"></polygon>
            <path d="M115.476117,83.5893394 L115.476117,65.5054835 C124.493156,65.5054835 130.5534,64.5055314 133.658245,62.5097936 C139.20311,58.9974619 141.974146,53.3630095 141.974146,45.6106031 C141.974146,39.6150568 139.964307,34.7375128 135.944629,30.9821371 C131.983612,27.1642643 126.831218,25.2574111 120.501412,25.2574111 C114.592011,25.2574111 110.02902,26.682343 106.798473,29.5266511 C103.693628,32.4362341 101.380707,37.3401659 99.8527268,44.2440017 L78.6565381,44.2440017 C80.8507403,31.0432451 85.3578635,21.3659308 92.1807009,15.219003 C98.9993485,9.0706865 108.531767,6 120.77237,6 C133.142866,6 143.222788,9.63038178 151.021913,16.8980894 C158.812657,24.110244 162.717806,33.4070208 162.717806,44.795364 C162.717806,57.6350272 157.594742,67.6262154 147.361185,74.7772615 C159.119929,81.6213781 165,92.7333462 165,108.115943 C165,120.712562 160.719141,131.012068 152.161613,139.008908 C143.604085,146.997414 132.652627,151 119.314225,151 C102.322077,151 89.714144,144.790575 81.4890284,132.371725 C78.0769114,127.166419 75.9134361,119.954265 75,110.751928 L95.5592974,110.751928 C96.6584937,117.533547 99.3205872,122.729132 103.556752,126.334515 C107.788727,129.93712 113.315435,131.739811 120.139669,131.739811 C127.021168,131.739811 132.714082,129.463531 137.223998,124.917916 C141.731122,120.261194 143.989571,114.354533 143.989571,107.203486 C143.989571,97.7581054 140.602595,91.0362051 133.839815,87.0391742 C129.881592,84.7420622 123.759893,83.5893394 115.476117,83.5893394" id="Fill-13" fill="#FFFFFF"></path>
            <path d="M35.0995345,211.328175 L39.6326972,211.328175 C50.7595513,211.328175 56.3028584,207.053946 56.3028584,198.526238 C56.3028584,190.269646 50.5763929,186.130976 39.1040362,186.130976 L35.0995345,186.130976 L35.0995345,211.328175 Z M35.0995345,222.525547 L35.0995345,255 L23,255 L23,175 L36.7160432,175 C43.4457156,175 48.5130893,175.470304 51.9389781,176.403994 C55.4092689,177.330768 58.457741,179.088874 61.0857823,181.683842 C65.6994235,186.18354 68,191.841013 68,198.678396 C68,206.005447 65.5412415,211.821994 60.6251118,216.083773 C55.6992693,220.380133 49.0667266,222.525547 40.7066694,222.525547 L35.0995345,222.525547 Z" id="Fill-15" fill="#DA2C83"></path>
            <path d="M92.0922815,211.736232 L95.9478315,211.736232 C107.409079,211.736232 113.131381,207.374859 113.131381,198.625832 C113.131381,190.439786 107.556089,186.33708 96.4110524,186.33708 L92.0922815,186.33708 L92.0922815,211.736232 Z M107.169147,220.904383 L132,255 L117.179709,255 L94.287726,222.251664 L92.0922815,222.251664 L92.0922815,255 L80,255 L80,175 L94.1740012,175 C104.775378,175 112.425455,176.989107 117.139489,180.959021 C122.329226,185.38679 124.928255,191.228235 124.928255,198.470909 C124.928255,204.144982 123.305595,209.002939 120.050568,213.075214 C116.795541,217.153021 112.505894,219.775655 107.169147,220.904383 L107.169147,220.904383 Z" id="Fill-17" fill="#DA2C83"></path>
            <path d="M151.230082,214.281345 C151.230082,223.125766 154.208046,230.392556 160.182041,236.087251 C166.103229,241.793016 172.970752,244.63552 180.737361,244.63552 C189.175159,244.63552 196.288645,241.74043 202.076429,235.936407 C207.875331,230.071494 210.774087,222.914032 210.774087,214.49308 C210.774087,205.968337 207.908682,198.820561 202.176482,193.053904 C196.49014,187.248499 189.443356,184.345104 181.043078,184.345104 C172.68171,184.345104 165.622419,187.248499 159.865206,193.053904 C154.099656,198.790116 151.230082,205.860394 151.230082,214.281345 M139,214.154028 C139,202.89334 143.142469,193.210284 151.42463,185.132536 C159.688724,177.038182 169.613419,173 181.215392,173 C192.657557,173 202.469693,177.078315 210.665696,185.229408 C218.890881,193.381886 223,203.181189 223,214.627317 C223,226.137104 218.879764,235.899042 210.611501,243.913131 C202.314055,251.961816 192.308761,256 180.585892,256 C170.208179,256 160.883801,252.41573 152.630823,245.26242 C143.538512,237.349356 139,226.97574 139,214.154028" id="Fill-19" fill="#DA2C83"></path>
            <path d="M250.108616,243.660153 L255.55091,243.660153 C260.984888,243.660153 265.509502,243.083339 269.095647,241.949078 C272.705362,240.742889 275.961586,238.825711 278.869874,236.200311 C284.812592,230.771072 287.791576,223.697155 287.791576,215.002074 C287.791576,206.236448 284.845859,199.112734 278.964136,193.654448 C273.668781,188.786807 265.875464,186.337079 255.55091,186.337079 L250.108616,186.337079 L250.108616,243.660153 Z M238,255 L238,175 L254.825918,175 C262.881232,175 269.261994,175.800899 273.933551,177.394398 C278.947501,178.943633 283.495683,181.575949 287.593348,185.320394 C295.862137,192.843866 300,202.734071 300,215.002074 C300,227.30051 295.693019,237.247427 287.063809,244.852511 C282.740195,248.64537 278.205876,251.294285 273.471941,252.77574 C269.031884,254.266878 262.74677,255 254.626301,255 L238,255 Z" id="Fill-21" fill="#DA2C83"></path>
            <path d="M328.237947,175 L328.237947,223.465367 C328.237947,230.377255 329.381448,235.435855 331.650223,238.634204 C335.048487,243.256983 339.822871,245.565586 345.985987,245.565586 C352.177129,245.565586 356.968329,243.256983 360.360989,238.634204 C362.638174,235.54307 363.784474,230.492825 363.784474,223.465367 L363.784474,175 L376,175 L376,226.843337 C376,235.321678 373.354261,242.322681 368.022142,247.812926 C362.046807,253.929749 354.692545,257 345.985987,257 C337.262612,257 329.932175,253.929749 323.983463,247.812926 C318.679375,242.322681 316,235.321678 316,226.843337 L316,175 L328.237947,175 Z" id="Fill-23" fill="#DA2C83"></path>
            <path d="M453,178.829779 L453,193.106166 C446.03284,187.25979 438.844713,184.346976 431.379009,184.346976 C423.178608,184.346976 416.259782,187.287452 410.640478,193.200217 C404.993555,199.074255 402.162498,206.253942 402.162498,214.755875 C402.162498,223.144393 404.993555,230.227263 410.640478,235.990652 C416.286021,241.767874 423.217279,244.641958 431.413533,244.641958 C435.678073,244.641958 439.270065,243.954557 442.23784,242.576987 C443.893664,241.886821 445.613014,240.950458 447.390362,239.770674 C449.169098,238.596419 451.043118,237.178737 453,235.521781 L453,250.1149 C446.110175,254.034614 438.855762,256 431.283719,256 C419.86282,256 410.111556,252.008366 402.049256,244.029246 C394.013195,235.974055 390,226.277121 390,214.90525 C390,204.718697 393.35998,195.628946 400.082706,187.652592 C408.361823,177.882353 419.07841,173 432.202088,173 C439.384687,173 446.315943,174.93911 453,178.829779" id="Fill-25" fill="#DA2C83"></path>
            <polygon id="Fill-27" fill="#DA2C83" points="491.58734 186.335696 491.58734 255 479.462641 255 479.462641 186.335696 461 186.335696 461 175 510 175 510 186.335696"></polygon>
            <polygon id="Fill-29" fill="#DA2C83" points="521 255 533 255 533 175 521 175"></polygon>
            <path d="M560.230638,214.281345 C560.230638,223.125766 563.221953,230.392556 569.186526,236.087251 C575.106636,241.793016 581.978467,244.63552 589.745054,244.63552 C598.175758,244.63552 605.296287,241.74043 611.070513,235.936407 C616.876696,230.071494 619.783259,222.914032 619.783259,214.49308 C619.783259,205.968337 616.904482,198.820561 611.192776,193.053904 C605.494967,187.248499 598.460578,184.345104 590.050715,184.345104 C581.697814,184.345104 574.641198,187.248499 568.868359,193.053904 C563.120531,198.790116 560.230638,205.860394 560.230638,214.281345 M548,214.154028 C548,202.89334 552.15561,193.210284 560.44738,185.132536 C568.711359,177.038182 578.623134,173 590.218827,173 C601.656134,173 611.494272,177.078315 619.669331,185.229408 C627.901355,193.381886 632,203.181189 632,214.627317 C632,226.137104 627.879128,235.899042 619.608198,243.913131 C611.315041,251.961816 601.318514,256 589.595002,256 C579.213618,256 569.890937,252.41573 561.64224,245.26242 C552.550193,237.349356 548,226.97574 548,214.154028" id="Fill-31" fill="#DA2C83"></path>
            <polygon id="Fill-32" fill="#DA2C83" points="647 255.08613 647 169 705.839131 230.498653 705.839131 174.486646 718 174.486646 718 260 659.177604 198.657433 659.177604 255.08613"></polygon>
            <path d="M782.903508,186.414714 L772.973569,192.214064 C771.116877,189.034311 769.347132,186.966572 767.665731,185.999783 C765.910008,184.893301 763.650844,184.346976 760.889647,184.346976 C757.491789,184.346976 754.673093,185.291635 752.439174,187.194784 C750.195436,189.059207 749.084788,191.41878 749.084788,194.24031 C749.084788,198.148958 752.021276,201.303816 757.897062,203.67722 L765.988537,206.949642 C772.573905,209.57892 777.381113,212.783569 780.452227,216.558057 C783.474258,220.356057 785,224.990835 785,230.485902 C785,237.84954 782.512255,243.931045 777.557806,248.729028 C772.530433,253.576803 766.322292,256 758.899731,256 C751.868424,256 746.041719,253.921198 741.457485,249.802318 C736.937758,245.679287 734.131684,239.875787 733,232.420863 L745.400851,229.723812 C745.954772,234.427745 746.943419,237.668355 748.328929,239.462239 C750.855935,242.91308 754.528652,244.641959 759.372321,244.641959 C763.179659,244.641959 766.360155,243.390252 768.877349,240.870238 C771.398746,238.350224 772.66085,235.151108 772.66085,231.289485 C772.66085,229.748708 772.442086,228.314431 772.017177,227.011548 C771.565625,225.728029 770.881287,224.535794 769.954343,223.455591 C769.02319,222.35879 767.824194,221.33806 766.360155,220.393401 C764.884899,219.444592 763.138993,218.528978 761.109813,217.664539 L753.279173,214.458507 C742.160053,209.833411 736.62784,203.082486 736.62784,194.164239 C736.62784,188.165722 738.950109,183.138143 743.626897,179.103633 C748.27003,175.031778 754.061676,173 760.993418,173 C770.355409,173 777.647553,177.466039 782.903508,186.414714" id="Fill-33" fill="#DA2C83"></path>
            <polygon id="Fill-34" fill="#DA2C83" points="208.027149 28.0014655 184 28.0014655 195.521035 8 229 8 229 149 208.027149 149"></polygon>
            <polygon id="Fill-35" fill="#FFFFFF" points="244 29 301 29 301 8 244 8"></polygon>
            <polygon id="Fill-36" fill="#FFFFFF" points="244 83 298 83 298 62 244 62"></polygon>
            <polygon id="Fill-37" fill="#FFFFFF" points="244 148 301 148 301 130 244 130"></polygon>
        </g>
    </g>
</svg>